/* XPM */
static char *dcfcf5870d93455edc77e45ac01419a9KbCSg9UQJsZc7I7N[] = {
/* columns rows colors chars-per-pixel */
"103 50 256 2 ",
"   c black",
".  c #010101",
"X  c #020202",
"o  c gray1",
"O  c #040404",
"+  c gray2",
"@  c #060606",
"#  c #070707",
"$  c gray3",
"%  c #090909",
"&  c gray4",
"*  c #0B0B0B",
"=  c #0C0C0C",
"-  c gray5",
";  c #0E0E0E",
":  c gray6",
">  c #101010",
",  c #111111",
"<  c gray7",
"1  c #131313",
"2  c gray8",
"3  c #151515",
"4  c #161616",
"5  c gray9",
"6  c #181818",
"7  c #191919",
"8  c gray10",
"9  c #1B1B1B",
"0  c gray11",
"q  c #1D1D1D",
"w  c #1E1E1E",
"e  c gray12",
"r  c #202020",
"t  c gray13",
"y  c #222222",
"u  c #232323",
"i  c gray14",
"p  c #252525",
"a  c gray15",
"s  c #272727",
"d  c #282828",
"f  c gray16",
"g  c #2A2A2A",
"h  c gray17",
"j  c #2C2C2C",
"k  c #2D2D2D",
"l  c gray18",
"z  c #2F2F2F",
"x  c gray19",
"c  c #313131",
"v  c #323232",
"b  c gray20",
"n  c #343434",
"m  c #353535",
"M  c gray21",
"N  c #373737",
"B  c gray22",
"V  c #393939",
"C  c #3A3A3A",
"Z  c gray23",
"A  c #3C3C3C",
"S  c gray24",
"D  c #3E3E3E",
"F  c #3F3F3F",
"G  c gray25",
"H  c #414141",
"J  c gray26",
"K  c #434343",
"L  c #444444",
"P  c gray27",
"I  c #464646",
"U  c gray28",
"Y  c #484848",
"T  c #494949",
"R  c gray29",
"E  c #4B4B4B",
"W  c #4C4C4C",
"Q  c gray30",
"!  c #4E4E4E",
"~  c gray31",
"^  c #505050",
"/  c #515151",
"(  c gray32",
")  c #535353",
"_  c gray33",
"`  c #555555",
"'  c #565656",
"]  c gray34",
"[  c #585858",
"{  c gray35",
"}  c #5A5A5A",
"|  c #5B5B5B",
" . c gray36",
".. c #5D5D5D",
"X. c gray37",
"o. c #5F5F5F",
"O. c #606060",
"+. c gray38",
"@. c #626262",
"#. c gray39",
"$. c #646464",
"%. c #656565",
"&. c gray40",
"*. c #676767",
"=. c #686868",
"-. c DimGray",
";. c #6A6A6A",
":. c gray42",
">. c #6C6C6C",
",. c #6D6D6D",
"<. c gray43",
"1. c #6F6F6F",
"2. c gray44",
"3. c #717171",
"4. c #727272",
"5. c gray45",
"6. c #747474",
"7. c gray46",
"8. c #767676",
"9. c #777777",
"0. c gray47",
"q. c #797979",
"w. c gray48",
"e. c #7B7B7B",
"r. c #7C7C7C",
"t. c gray49",
"y. c #7E7E7E",
"u. c gray50",
"i. c #808080",
"p. c #818181",
"a. c gray51",
"s. c #838383",
"d. c #848484",
"f. c gray52",
"g. c #868686",
"h. c gray53",
"j. c #888888",
"k. c #898989",
"l. c gray54",
"z. c #8B8B8B",
"x. c gray55",
"c. c #8D8D8D",
"v. c #8E8E8E",
"b. c gray56",
"n. c #909090",
"m. c gray57",
"M. c #929292",
"N. c #939393",
"B. c gray58",
"V. c #959595",
"C. c gray59",
"Z. c #979797",
"A. c #989898",
"S. c gray60",
"D. c #9A9A9A",
"F. c #9B9B9B",
"G. c gray61",
"H. c #9D9D9D",
"J. c gray62",
"K. c #9F9F9F",
"L. c #A0A0A0",
"P. c gray63",
"I. c #A2A2A2",
"U. c gray64",
"Y. c #A4A4A4",
"T. c #A5A5A5",
"R. c gray65",
"E. c #A7A7A7",
"W. c gray66",
"Q. c #A9A9A9",
"!. c #AAAAAA",
"~. c gray67",
"^. c #ACACAC",
"/. c gray68",
"(. c #AEAEAE",
"). c #AFAFAF",
"_. c gray69",
"`. c #B1B1B1",
"'. c #B2B2B2",
"]. c gray70",
"[. c #B4B4B4",
"{. c gray71",
"}. c #B6B6B6",
"|. c #B7B7B7",
" X c gray72",
".X c #B9B9B9",
"XX c gray73",
"oX c #BBBBBB",
"OX c #BCBCBC",
"+X c gray74",
"@X c gray",
"#X c gray75",
"$X c #C0C0C0",
"%X c #C1C1C1",
"&X c gray76",
"*X c #C3C3C3",
"=X c gray77",
"-X c #C5C5C5",
";X c #C6C6C6",
":X c gray78",
">X c #C8C8C8",
",X c gray79",
"<X c #CACACA",
"1X c #CBCBCB",
"2X c gray80",
"3X c #CDCDCD",
"4X c #CECECE",
"5X c gray81",
"6X c #D0D0D0",
"7X c gray82",
"8X c #D2D2D2",
"9X c LightGray",
"0X c gray83",
"qX c #D5D5D5",
"wX c gray84",
"eX c #D7D7D7",
"rX c #D8D8D8",
"tX c gray85",
"yX c #DADADA",
"uX c gray86",
"iX c gainsboro",
"pX c #DDDDDD",
"aX c gray87",
"sX c #DFDFDF",
"dX c gray88",
"fX c #E1E1E1",
"gX c #E2E2E2",
"hX c gray89",
"jX c #E4E4E4",
"kX c gray90",
"lX c #E6E6E6",
"zX c #E7E7E7",
"xX c gray91",
"cX c #E9E9E9",
"vX c #EAEAEA",
"bX c gray92",
"nX c #ECECEC",
"mX c gray93",
"MX c #EEEEEE",
"NX c #EFEFEF",
"BX c gray94",
"VX c #F1F1F1",
"CX c gray95",
"ZX c #F3F3F3",
"AX c #F4F4F4",
"SX c gray96",
"DX c #F6F6F6",
"FX c gray97",
"GX c #F8F8F8",
"HX c #F9F9F9",
"JX c gray98",
"KX c #FBFBFB",
"LX c gray99",
"PX c #FDFDFD",
"IX c #FEFEFE",
"UX c white",
/* pixels */
"7 7 7 7 7 7 7 7 7 7 8 0 w 7 6 6 6 6 6 6 6 6 6 6 6 6 6 6 6 6 6 6 6 6 6 6 6 6 6 6 6 6 6 6 6 6 6 6 6 6 6 6 6 6 6 6 6 6 6 6 6 6 6 6 6 6 6 6 6 6 6 6 6 6 6 6 6 6 6 6 6 6 6 6 6 6 6 6 6 6 6 q 0 9 8 9 9 8 5 4 7 7 7 ",
"7 7 7 7 6 8 0 8 4 4 7 8 7 8 8 8 8 8 8 8 8 8 8 8 8 8 8 8 8 8 8 8 8 8 8 8 8 8 8 8 8 8 8 8 8 8 8 8 8 8 8 8 8 8 8 8 8 8 8 8 8 8 8 8 8 8 8 8 8 8 8 8 8 8 8 8 8 8 8 8 8 8 7 7 7 7 7 7 7 7 7 4 7 0 6 4 6 8 9 7 7 7 7 ",
"1 8 8 6 6 5 9 e 6 < 4 5 8 6 6 6 6 6 6 6 6 6 6 6 6 6 6 6 6 6 6 6 6 6 6 6 6 6 6 6 6 6 6 6 6 6 6 6 6 6 6 6 6 6 6 6 6 6 6 6 6 6 6 6 6 6 6 6 6 6 6 6 6 6 6 6 6 6 6 6 6 6 6 6 6 6 6 6 6 6 6 0 5 6 7 6 6 6 7 7 5 0 3 ",
"9 8 5 7 0 3 1 5 8 u v V J W Q Q Q Q Q Q Q Q Q Q Q Q Q Q Q Q Q Q Q Q Q Q Q Q Q Q Q Q Q Q Q Q Q Q W W W W W W W W Q Q Q Q Q Q Q Q Q Q Q Q Q Q Q Q Q Q Q Q Q Q Q Q Q Q Q Q Q Q Q Q Q Q W S v d e 6 6 8 0 9 5 8 3 ",
"y 6 < 7 9 5 8 s N R ] } @.O.O.O.O.O.O.O.O.O.O.O.O.O.O.O.O.O.O.O.O.O.O.O.O.O.O.O.O.O.O.O.O.O.O.O.o.o.o.o.o.o.o.o.O.O.O.O.O.O.O.O.O.O.O.O.O.O.O.O.O.O.O.O.O.O.O.O.O.O.O.O.O.O.O.O.O.O.o.} ] W C d 0 4 5 8 8 7 0 ",
"0 3 4 8 2 9 c Y { $.#...#.O.O.O.O.O.O.O.O.O.O.O.O.O.O.O.O.O.O.O.O.O.O.O.O.O.O.O.O.O.O.O.O.O.O.O.o.o.o.o.o.o.o.o.O.O.O.O.O.O.O.O.O.O.O.O.O.O.O.O.O.O.O.O.O.O.O.O.O.O.O.O.O.O.O.O.O.O.O.X.#.+.{ T x 0 4 7 5 4 0 ",
"2 4 q 7 5 h Y } @.$.o.| +.@.@.@.@.@.@.@.@.@.@.@.@.@.@.@.@.@.@.@.@.@.@.@.@.@.@.@.@.@.@.@.@.@.@.+.+.+.+.+.+.+.+.+.+.@.@.@.@.@.@.@.@.@.@.@.@.@.@.@.@.@.@.@.@.@.@.@.@.@.@.@.@.@.@.@.@.@.+.X.+.X.O.O.! n t 6 5 4 7 ",
"2 7 w 5 k E } ....o.o.o...............................................................................................................................................................@.$.|  .#.X.Q x 5 9 0 9 ",
"8 8 6 8 I #.#.o.o...] ^ K U Y Y Y Y Y Y Y Y Y Y Y Y Y Y Y Y Y Y Y Y Y Y Y Y Y Y Y Y Y Y Y Y Y Y Y Y Y Y Y Y Y Y Y Y Y Y Y Y Y Y Y Y Y Y Y Y Y Y Y Y Y Y Y Y Y Y Y Y Y Y Y Y Y Y Y Y Y ~ } | X.o.O...L e 8 w w ",
"0 q 3 k ) @.X.o...Q Z n s d d d d d d d d d d d d d d d d d d d d d d d d d d d d d d d d d d d f f s s f f f f d d d d d d d d d d d d d d d d d d d d d d d d d d d d d d d d d d d z Z R ..O. .#.| n 5 7 7 ",
"8 w 7 I .. .|  .( B d h f f f f f f f f f f f f f f f f f f f f f f f f f f f f f f f f f f f f f l G S l h f g g f f f f f f f f f f f f f f f f f f f f f f f f f f f f f f f f f f d f m ( o.} +.$.J 0 5 4 ",
"5 8 r ^ #.} X.{ Z h f j g g g g g g g g g g g g g g g g g g g g g g g g g g g g g g g g g g g f p H |.W.L j p h j g g g g g g g g g g g g g g g g g g g g g g g g g g g g g g g g g g g a f C [  .X.*.E u 0 5 ",
"6 8 r ^ +.| o.) b d g h f g g g g g g g g g g g g g g g g g g g g g g g g g g g g g g g g g g g s W SXmXY r z h d g g g g g g g g g g g g g g g g g g g g g g g g g g g g g g g g g g j f d n _ ....&.! i 9 5 ",
"7 8 r / +.o.@.Q h s h f f g g g g g g g g g g g g g g g g g g g g g g g g g g g g g g g g g g f a P 0X0XE s c d a g g g g g g g g g g g g g g g g g g g g g g g g g g g g g g g g g g j h d l ^ X...%./ a 9 5 ",
"7 9 t / +.#.#.T f g k f h g g g g g g g g g g g g g g g g g g g g g g g g g g g g g g g g g g j j h ^ U j k a g h g g g g g g g g g g g g g g g g g g g g g g g g g g g g g g g g g g h k s f ! +...@.( s 9 6 ",
"8 9 t / #.$.@.Y j l j a l g g g g g g g g g g g g g g g g g g g g g g g g g g g g g g g g g g j l s b d a l u h k g g g g g g g g g g g g g g g g g g g g g g g g g g g g g g g g g g g k d a W $.X.o.( d 8 7 ",
"8 9 y / @.@.O.Y l z g p k g g g g g g g g g g g g g g g g g g g g g g g g g g g g g g g g g g h h F T.Y.K k l f d g g g g g g g g g g g g g g g g g g g g g g g g g g g g g g g g g g d j f s E $.o.o.( f 8 8 ",
"8 9 t / +.O.O.R k j g p h g g g g g g g g g g g g g g g g g g g g g g g g g g g g g g g g g g h g ~ AXVX! p b h s g g g g g g g g g g g g g g g g g g g g g g g g g g g g g g g g g g f g h d T #.+.O.) d 7 0 ",
"8 9 t / o.+.$.W h f k f f g g g g g g g g g g g g g g g g g g g g g g g g g g g g g g g g g g g g E aX7XR f h h g g g g g g g g g g g g g g g g g g g g g g g g g g g g g g g g g g g f f j f I O.@.@.) d 6 q ",
"8 9 y / O.O.$.Q h g k h f g g g g g g g g g g g g g g g g g g g g g g g g g g g g g g g g g g d d F 6.=.D z i h j g g g g g g g g g g g g g g g g g g g g g g g g g g g g g g g g g g f f h d U +.+.@.) s 7 9 ",
"8 8 i / @.o.+.Q k j g g g g g g g g g g g g g g g g g g g g g g g g g g g g g g g g g g g g g g h z d a h g s g h g g g g g g g g g g g g g g g g g g g g g g g g g g g g g g g g g g f g f d R @.O.@.) s 8 6 ",
"8 8 i / @.o.+.Q k j g g g g g g g g g g g g g g g g g g g g g g g g g g g g g g g g g g g g g k l k 7.5.v f k f f g g g g g g g g g g g g g g g g g g g g g g g g g g g g g g g g g g f g f d R @.O.@.) s 8 6 ",
"8 8 i / @.o.+.Q k j g g g g g g g g g g g g g g g g g g g g g g g g g g g g g g g g g g g g g f a R NXnX) f j j g g g g g g g g g g g g g g g g g g g g g g g g g g g g g g g g g g g f g f d R @.O.@.) s 8 6 ",
"8 8 i / @.o.+.Q k j g g g g g g g g g g g g g g g g g g g g g g g g g g g g g g g g g g g g g s i ( hXuX~ u d z k g g g g g g g g g g g g g g g g g g g g g g g g g g g g g g g g g g f g f d R @.O.@.) s 8 6 ",
"8 8 i / @.o.+.Q k j g g g g g g g g g g g g g g g g g g g g g g g g g g g g g g g g g g g g g g f v [ ` x d j f f g g g g g g g g g g g g g g g g g g g g g g g g g g g g g g g g g g f g f d R @.O.@.) s 8 6 ",
"8 8 i / @.o.+.Q k j g g g g g g g g g g g g g g g g g g g g g g g g g g g g g g g g g g g g g h j j n v h k l f d g g g g g g g g g g g g g g g g g g g g g g g g g g g g g g g g g g f g f d R @.O.@.) s 8 6 ",
"8 8 i / @.o.+.Q k j g g g g g g g g g g g g g g g g g g g g g g g g g g g g g g g g g g g g g h j S d.0.b i f l j g g g g g g g g g g g g g g g g g g g g g g g g g g g g g g g g g g f g f d R @.O.@.) s 8 6 ",
"8 8 i / @.o.+.Q k j g g g g g g g g g g g g g g g g g g g g g g g g g g g g g g g g g g g f d g s K kXpXE g g d d g g g g g g g g g g g g g g g g g g g g g g g g g g g g g g g g g g f g f d R @.O.@.) s 8 6 ",
"9 7 i / @.O.+.Q k j f g g g g g g g g g g g g g g g g g g g g g g g g g g g g h g f f s A &.5.@.*.g.VXVXx.%.$.*.;.J p j f g j k d g g g g g g g g g g g g g g g g g g g g g g g g g g f g f d R @.O.@._ f 7 7 ",
"0 7 i / @.O.+.Q k j f g g g g g g g g g g g g g g g g g g g g g g g g g g g g g d d h d A y.%XwX9XeXHXHXeX8XwX3Xz.S s l s g g h g g g g g g g g g g g g g g g g g g g g g g g g g g g f g f d R @.O.@._ f 7 7 ",
"0 7 i / @.O.+.Q k j f g g g g g g g g g g g g g g g g g g g g g g g g g g g g j s d j f j ` !.AXUXHXCXCXGXUXVX}.+.l h j a j s d k g g g g g g g g g g g g g g g g g g g g g g g g g g f g f d R @.O.@._ f 7 7 ",
"0 7 i / @.O.+.Q k j f g g g g g g g g g g g g g g g g g g g g g g g g g g g g k d f j k a f _ E.AXUXVXVXIXZX'.| z f j f s x f g k g g g g g g g g g g g g g g g g g g g g g g g g g g f g f d R @.O.@._ f 7 7 ",
"0 7 i / @.O.+.Q k j f g g g g g g g g g g g g g g g g g g g g g g g g g g g g g s h h j j u i ) ^.kXUXIXMX|.$.z i f g d g x g k g g g g g g g g g g g g g g g g g g g g g g g g g g g f g f d R @.O.@._ f 7 7 ",
"0 7 i / @.O.+.Q k j f g g g g g g g g g g g g g g g g g g g g g g g g g g g g g d k f s k k f k W G.CXAX[.o.j h k f d g j h s l g g g g g g g g g g g g g g g g g g g g g g g g g g g f g f d R @.O.@._ f 7 7 ",
"0 7 i / @.O.+.Q k j f g g g g g g g g g g g g g g g g g g g g g g g g g g g g h g h g d h l h a h ] /.|.*.z t k z f f k j a p j g g g g g g g g g g g g g g g g g g g g g g g g g g g f g f d R @.O.@._ f 7 7 ",
"0 7 i / @.O.+.Q k j f g g g g g g g g g g g g g g g g g g g g g g g g g g g g f j f g z l h g h l k D U b f h f f g h j f f h f g g g g g g g g g g g g g g g g g g g g g g g g g g g f g f d R @.O.@._ f 7 7 ",
"0 7 i ^ @.o.+.Q k j g f h g g g g g g g g g g g g g g g g g g g g g g g g g g f v f a h f a h h d x d d j g k g d h h d s l v d f g g g g g g g g g g g g g g g g g g g g g g g g g g f h f d E @.O.+.) f 8 7 ",
"q 8 u Q @.X.O./ l f x p z g f f f f f f f f f f f f f f f f f f f f f f f f f f g f f f f f f f f g f f f f f f f f f f f f g f f f f f f f f f f f f f f f f f f f g h h h h h h h h g c s j ^ +.o.+.~ d w 0 ",
"7 7 e / @.} O.[ M s k i y g h h h h h h h h h h h h h h h h h h h h h h h h h h h h h h h h h h h h h h h h h h h h h h h h h h h h h h h h h h h h h h h h h h h h h h h h h h h h h j k p x ) +.O.*._ a 5 8 ",
"9 7 8 / $.} o...G d h c z g f f f f f f f f f f f f f f f f f f f f f f f f f f f f f f f f f f f f f f f f f f f f f f f f f f f f f f f f f f f f f f f f f f f f f f f f f f f f f s d h F X.#.O.%.^ t 2 8 ",
"w 0 4 L X. ...@.) N d g d g h h h h h h h h h h h h h h h h h h h h h h h h h h h h h h h h h h h h h h h h h h h h h h h h h h h h h h h h h h h h h h h h h h h h h h h h h h h h h p h Z ^ #.#.o...H 8 4 9 ",
"9 q 4 l _ $.O.o.X.^ C z h f f f f f f f f f f f f f f f f f f f f f f f f f f f f f f f f f f f f f f f f f f f f f f f f f f f f f f f f f f f f f f f f f f f f f f g g g g g g g g b S ! ] o.@.+._ c 4 8 8 ",
"1 0 6 0 G #.-.o. .o.` ! ~ W E E E E E E E E E E E E E E E E E E E E E E E E E E E E E E E E E E E E E E E E E E E E E E E E E E E E E E E E E E E E E E E E E E E E W W W W W W W W W Q / .. .o.$.o.L t 6 7 4 ",
", 9 6 3 a T #.$.o.+.X.| +.+.+.+.+.+.+.+.+.+.+.+.+.+.+.+.+.+.+.+.+.+.+.+.+.+.+.+.+.+.+.+.+.+.+.+.+.+.+.+.+.+.+.+.+.+.+.+.+.+.+.+.+.+.+.+.+.+.+.+.+.+.+.+.+.+.+.+.+.+.+.+.+.+.+.+.+.+.+...| #.@.@...E l 4 9 5 3 ",
"8 0 3 6 6 f Y X.#.#.o.} o.X.X.X.X.X.X.X.X.X.X.X.X.X.X.X.X.X.X.X.X.X.X.X.X.X.X.X.X.X.X.X.X.X.X.X.X.X.X.X.X.X.X.X.X.X.X.X.X.X.X.X.X.X.X.X.X.X.X.X.X.X.X.X.X.X.X.X.X.X.o.o.o.o.o.o.o.o.o.+.} @.%.O.T k 0 4 8 4 9 ",
"w 9 3 8 8 6 p H | &.#...+.o.o.o.o.o.o.o.o.o.o.o.o.o.o.o.o.o.o.o.o.o.o.o.o.o.o.o.o.o.o.o.o.o.o.o.o.o.o.o.o.o.o.o.o.o.o.o.o.o.o.o.o.o.o.o.o.o.o.o.o.o.o.o.o.o.o.o.o.o.O.O.O.O.O.O.O.O.O.X.| #...R l 9 5 6 7 6 q ",
"7 7 7 7 0 5 1 t A ! / ' +.+.+.+.+.+.+.+.+.+.+.+.+.+.+.+.+.+.+.+.+.+.+.+.+.+.+.+.+.+.+.+.+.+.+.+.+.+.+.+.+.+.+.+.+.+.+.+.+.+.+.+.+.+.+.+.+.+.+.+.+.+.+.+.+.+.+.+.+.+.O.O.O.O.O.O.O.O.o.] _ ~ D p 7 9 9 5 7 7 7 ",
"7 7 7 7 4 6 9 7 4 8 f G / ( ( ( ( ( ( ( ( ( ( ( ( ( ( ( ( ( ( ( ( ( ( ( ( ( ( ( ( ( ( ( ( ( ( ( ( ( ( ( ( ( ( ( ( ( ( ( ( ( ( ( ( ( ( ( ( ( ( ( ( ( ( ( ( ( ( ( ( ( ( ( ( ( ( ( ( ( ( Y k 7 2 3 4 8 0 9 7 7 7 ",
"7 7 7 7 6 8 0 7 4 8 w 9 1 6 7 7 7 7 7 7 7 7 7 7 7 7 7 7 7 7 7 7 7 7 7 7 7 7 7 7 7 7 7 7 7 7 7 7 7 7 7 7 7 7 7 7 7 7 7 7 7 7 7 7 7 7 7 7 7 7 7 7 7 7 7 7 7 7 7 7 7 7 7 8 8 8 8 8 8 8 8 6 1 4 w w 5 1 3 5 6 6 6 ",
"7 7 7 7 0 0 5 2 3 4 6 7 7 8 8 8 8 8 8 8 8 8 8 8 8 8 8 8 8 8 8 8 8 8 8 8 8 8 8 8 8 8 8 8 8 8 8 8 8 8 8 8 8 8 8 8 8 8 8 8 8 8 8 8 8 8 8 8 8 8 8 8 8 8 8 8 8 8 8 8 8 8 8 8 8 8 8 8 8 8 8 0 0 8 6 3 3 7 0 0 6 6 6 "
};
