/* XPM */
static char *_3777526aefb41b4e3ecd27c439d1cb0sXJ3XduE3PQrIhgP[] = {
/* columns rows colors chars-per-pixel */
"105 50 182 2 ",
"   c #191919",
".  c #161616",
"X  c gray11",
"o  c #1D1D1D",
"O  c gray10",
"+  c #131313",
"@  c #1B1B1B",
"#  c #181818",
"$  c gray9",
"%  c gray12",
"&  c gray7",
"*  c #111111",
"=  c gray13",
"-  c gray19",
";  c #464646",
":  c #4B4B4B",
">  c gray29",
",  c #4C4C4C",
"<  c gray24",
"1  c #353535",
"2  c #282828",
"3  c #151515",
"4  c #2C2C2C",
"5  c gray28",
"6  c gray33",
"7  c gray37",
"8  c #5F5F5F",
"9  c #606060",
"0  c #626262",
"q  c #535353",
"w  c #3C3C3C",
"e  c #2A2A2A",
"r  c gray8",
"t  c #252525",
"y  c #494949",
"u  c gray35",
"i  c gray39",
"p  c gray36",
"a  c gray40",
"s  c gray31",
"d  c #393939",
"f  c #232323",
"g  c gray22",
"h  c gray30",
"j  c #5A5A5A",
"k  c gray38",
"l  c #5D5D5D",
"z  c #222222",
"x  c gray20",
"c  c #5B5B5B",
"v  c #585858",
"b  c gray21",
"n  c #1E1E1E",
"m  c #2D2D2D",
"M  c #505050",
"N  c #515151",
"B  c gray32",
"V  c #565656",
"C  c #4E4E4E",
"Z  c #6D6D6D",
"A  c #676767",
"S  c gray18",
"D  c #646464",
"F  c #3F3F3F",
"G  c #2F2F2F",
"H  c #373737",
"J  c #434343",
"K  c #202020",
"L  c gray16",
"P  c gray17",
"I  c gray25",
"U  c #555555",
"Y  c gray15",
"T  c #272727",
"R  c #484848",
"E  c #656565",
"W  c gray34",
"Q  c gray14",
"!  c #313131",
"~  c #3E3E3E",
"^  c #777777",
"/  c #898989",
"(  c gray51",
")  c #D7D7D7",
"_  c #B4B4B4",
"`  c gray44",
"'  c gray80",
"]  c #FEFEFE",
"[  c gray71",
"{  c gray50",
"}  c #CBCBCB",
"|  c #EFEFEF",
" . c #FDFDFD",
".. c gray70",
"X. c DimGray",
"o. c gray",
"O. c gray97",
"+. c white",
"@. c #848484",
"#. c #444444",
"$. c #343434",
"%. c gray78",
"&. c #F6F6F6",
"*. c #FBFBFB",
"=. c #F1F1F1",
"-. c #E4E4E4",
";. c gray77",
":. c #323232",
">. c #6C6C6C",
",. c gray59",
"<. c #ACACAC",
"1. c #E1E1E1",
"2. c #CDCDCD",
"3. c #888888",
"4. c gray90",
"5. c gray85",
"6. c #929292",
"7. c #6F6F6F",
"8. c #DDDDDD",
"9. c gray96",
"0. c gray98",
"q. c #F4F4F4",
"w. c #ECECEC",
"e. c #D0D0D0",
"r. c #686868",
"t. c #D2D2D2",
"y. c #EEEEEE",
"u. c #989898",
"i. c #3A3A3A",
"p. c #AEAEAE",
"a. c gray89",
"s. c #CECECE",
"d. c gray55",
"f. c gray91",
"g. c #868686",
"h. c #E7E7E7",
"j. c gray99",
"k. c gray82",
"l. c #838383",
"z. c #414141",
"x. c gray23",
"c. c gray26",
"v. c #939393",
"b. c #DFDFDF",
"n. c #F9F9F9",
"m. c #B9B9B9",
"M. c #8B8B8B",
"N. c gray92",
"B. c #B1B1B1",
"V. c #9B9B9B",
"C. c #404140",
"Z. c gray6",
"A. c #383638",
"S. c #3C3A3D",
"D. c #3B3A3C",
"F. c #3C3B3D",
"G. c #373538",
"H. c #2A292B",
"J. c #29292A",
"K. c #423F43",
"L. c #3F3C41",
"P. c #3A373D",
"I. c #3B373D",
"U. c #3B383D",
"Y. c #3C393E",
"T. c #413F43",
"R. c #302C32",
"E. c #242026",
"W. c #252127",
"Q. c #6A6A6A",
"!. c #312D32",
"~. c #262228",
"^. c #434044",
"/. c #302D32",
"(. c #424044",
"). c #403D41",
"_. c #312D33",
"`. c #171718",
"'. c #3C3A3E",
"]. c #0F0E0F",
"[. c #3B393D",
"{. c #0E0E0E",
/* pixels */
"                                                                                                                                                                                                                  ",
".   X     o O + @ # $ # $ # # # # # # # # # # # # # # # # # # # # # # # # # # # # # # # # # # # # # # # # # # # # # # # # # # # # # # # # # # # # # # # # # # # # # # # # # # # # # # @ $ . O O O X # # #   o % $ ",
"@ @ O & * O % = - ; : : > : , , , , , , , , , , , , , , , , , , , , , , , , , , , , , , , , , , , , , , , , , , , , , , , , , , , , , , , , , , , , , , , , , , , , , , , , , , , , , , ; < 1 2 o . & X X # #     ",
"  $ $ 3 @ 4 < 5 6 7 8 8 8 9 9 9 9 9 9 9 9 9 9 9 9 9 9 9 9 9 9 9 9 9 9 9 9 9 9 9 9 9 9 9 9 9 9 9 9 9 9 9 9 9 9 9 9 9 9 9 9 9 9 9 9 9 9 9 9 9 9 9 9 9 9 9 9 9 9 9 9 9 9 9 9 9 9 9 9 9 9 9 0 7 q 5 w e O $     . 3 @ ",
". r   t 1 y u 8 i 8 7 7 7 8 8 8 8 8 8 8 8 8 8 8 8 8 8 8 8 8 8 8 8 8 8 8 8 8 8 8 8 8 8 8 8 8 8 8 8 8 8 8 8 8 8 8 8 8 8 8 8 8 8 8 8 8 8 8 8 8 8 8 8 8 8 8 8 8 8 8 8 8 8 8 8 8 8 8 8 8 8 p i a 7 7 7 s d = # O O $ @ ",
"# $ f g h j k 9 l 9 k k k k 0 0 0 0 0 0 0 0 0 0 0 0 0 0 0 0 0 0 0 0 0 0 0 0 0 0 0 0 0 0 0 0 0 0 0 0 0 0 0 0 0 0 0 0 0 0 0 0 0 0 0 0 0 0 0 0 0 0 0 0 0 0 0 0 0 0 0 0 0 0 0 0 0 0 0 0 0 7 k 9 p 9 k 9 u w z   @ O O ",
"O = x : p 8 7 9 9 7 7 7 7 8 8 8 8 8 8 7 7 7 7 7 7 7 7 7 7 7 7 7 7 7 7 7 7 7 7 7 7 7 7 7 7 7 7 7 7 7 7 7 7 7 7 7 7 7 7 7 7 7 7 7 7 7 7 7 7 7 7 7 7 7 7 7 7 7 7 7 7 7 7 7 7 7 7 7 7 7 7 0 8 c 7 0 v u i 6 b n .   @ ",
". m ; p a i l k k q M N N N N B B B N N N N N N N N N N N N N N N N N N N N N N N N N N N N N N N N N N N N N N N N N N N N N N N N N N N N N N N N N N N N N N N N N N N N N N N N N V M C l Z A 0 A 0 C S . # X ",
"  < v i D l B : F G 4 4 4 4 m m m m 4 4 4 4 4 4 4 4 4 4 4 4 4 4 4 4 4 4 4 4 4 4 4 4 4 4 4 4 4 4 4 4 4 4 4 4 4 4 4 4 4 4 4 4 4 4 4 4 4 4 4 4 4 4 4 4 4 4 4 4 4 4 4 4 4 4 4 4 4 4 4 4 4 x - m H y u 7 c l 7 J K O # ",
"z h 0 k l c N F 2 2 L L L L e e e e L L L L L L L L L L L L L L L L L L L L L L L L L L L L L L L L L L L L L L L L L L L L L L L L L L L L L L L L L L L L L L L L L L L L L L L L L L 4 S 4 x N i j 8 D C 4 n & ",
"b B i l 7 c w 4 2 L e e e e e e e e e e e e e e e e e e e e e e e e e e 2 L P L L G e P 4 e e e e e e e e e e e e e e e e e e e e e e e e e e e e e e e e e e e e e e e e e e e e e e P L P m e 1 V c k k j I $ $ ",
"5 v 0 c p U G Y m P e e e e e e e e e e e e e e e e e e e e e e e e e e P e e 4 Y T L 4 e 2 e e e e e e e e e e e e e e e e e e e e e e e e e e e e e e e e e e e e e e e e e e e e e 4 2 L m 2 4 M c 0 9 7 5 3   ",
"N j k 7 7 N P Y 4 P e e e e e e e e e e e e e e e e e e e e e e e e e e 4 m P m 2 2 4 e 2 L e e e e e e e e e e e e e e e e e e e e e e e e e e e e e e e e e e e e e e e e e e e e e P 2 L 4 L m M c k 9 8 5 .   ",
"6 v k D D N e T L e e e e e e e e e e e e e e e e e e e e e e e e e e e e P P 2 m - 4 L 2 L e e e e e e e e e e e e e e e e e e e e e e e e e e e e e e e e e e e e e e e e e e e e e P 2 2 P L 4 s c 9 9 9 R . O ",
"6 v k E i h e P 2 L e e e e e e e e e e e e e e e e e e e e e e e e e e 2 T 2 t m 4 L S P Y e e e e e e e e e e e e e e e e e e e e e e e e e e e e e e e e e e e e e e e e e e e e e e 2 2 e L 4 h c 8 9 k y $ O ",
"W p 0 k l R e - 2 L e e e e e e e e e e e e e e e e e e e e e e e e e e P e L m e Q L ! m 2 e e e e e e e e e e e e e e e e e e e e e e e e e e e e e e e e e e e e e e e e e e e e e L L L L L 4 : c 8 9 0 > # @ ",
"q l 0 0 8 > e S t L e e e e e e e e e e e e e e e e e e e e e e e e e e m m P - t G 4 K 2 ! e e e e e e e e e e e e e e e e e e e e e e e e e e e e e e e e e e e e e e e e e e e e e L e L L e 4 > l 8 9 0 > # @ ",
"B p 9 i E s 2 4 t L e e e e e e e e e e e e e e e e e e e e e e e e e e L T T T = x L m F ~ L e e e e e e e e e e e e e e e e e e e e e e e e e e e e e e e e e e e e e e e e e e e e L P e L e m y l 8 8 0 > # @ ",
"W l c 7 i C Y S m e e e e e e e e e e e e e e e e e e e e e e e e e e e e L L 2 2 2 e ^ / s L e e e e e e e e e e e e e e e e e e e e e e e e e e e e e e e e e e e e e e e e e e e e L P P 2 P m y 7 8 8 i > # @ ",
"V p 7 8 k s 2 P P e e e e e e e e e e e e e e e e e e e e e e e e e e e L Y T G o e ( ) _ q 2 T e P m 2 L m L T ! L Y 2 L S - 2 e e e e e e e e e e e e e e e e e e e e e e e e e e e e e e e e G 5 l 9 8 0 >   # ",
"U c 9 9 k s L e L e e e e e e e e e e e e e e e e e e e e e e e e e e e P 2 z L < ` ' ] [ y T 2 S e 2 2 S m T P P f e ! 4 T e P e e e e e e e e e e e e e e e e e e e e e e e e e e e P e e e e - ; p 9 9 0 :   . ",
"U c 9 9 k s L e L e e e e e e e e e e e e e e e e e e e e e e e e e e e 4 e = S { } |  ...: t 2 G T n f L L T e f f T 4 e f K 2 e e e e e e e e e e e e e e e e e e e e e e e e e e e P e e e e - ; p 9 9 0 :   . ",
"U c 9 9 k s L e L e e e e e e e e e e e e e e e e e e e e e e e e e e e L L g X.o.O.+.+.' @.V b S w N j #.m $.h 9 p 4 o #.E u J P e e e e e e e e e e e e e e e e e e e e e e e e e e P e e e e - ; p 9 9 0 :   . ",
"U c 9 9 k s L e L e e e e e e e e e e e e e e e e e e e e e e e e e e e Y S D %.| &.*.+.=.-.;.p :.>.} -.,.< y <.1.2.N L 3.4.5.6.- e e e e e e e e e e e e e e e e e e e e e e e e e e P e e e e - ; p 9 9 0 :   . ",
"U c 9 9 k s L e L e e e e e e e e e e e e e e e e e e e e e e e e e e e Y - 7.8.*.9.=.0.q.w.e.A ! r.t.y.u.i.: p.a.s.V S d.f.8.,.- e e e e e e e e e e e e e e e e e e e e e e e e e e P e e e e - ; p 9 9 0 :   . ",
"U c 9 9 k s L e L e e e e e e e e e e e e e e e e e e e e e e e e e e e L 4 #.g.h.j.q. .k.l.W z.L x v 7 x.T d y v U S f #.8 6 c.P e e e e e e e e e e e e e e e e e e e e e e e e e e P e e e e - ; p 9 9 0 :   . ",
"U c 9 9 k s L e L e e e e e e e e e e e e e e e e e e e e e e e e e e e 4 P 2 ~ v.b.n.+.m.C T G e Y ! $.4 L - :.S e P - - 4 4 - e e e e e e e e e e e e e e e e e e e e e e e e e e e P e e e e - ; p 9 9 0 :   . ",
"U c 9 9 k s L e L e e e e e e e e e e e e e e e e e e e e e e e e e e e 2 T P ! F M.N.+.B.s T T L 2 P L m m Y 2 G t 2 S P 2 e 2 e e e e e e e e e e e e e e e e e e e e e e e e e e e P e e e e - ; p 9 9 0 :   . ",
"U p 9 9 k M e e e e e e e e e e e e e e e e e e e e e e e e e e e e e e L L P e 2 ; 6.b._ s e 2 L e e L P 4 T T m L L e e e P 2 e e e e e e e e e e e e e e e e e e e e e e e e e e e e e e P e - 5 l 9 8 0 :   # ",
"U p 9 9 0 M e e e e e e e e e e e e e e e e e e e e e e e e e e e e e e e 4 P t P e < v.V.N 2 e e e e e e e e e e e e e e e e e e e e e e e e e e e e e e e e e e e e e e e e e e e e e L e P L G 5 7 8 7 0 ,     ",
"U p 9 9 0 M e e e e e e e e e e e e e e e e e e e e e e e e e e e e e e L e 4 T T m Q #.l > L e e e e e e e e e e e e e e e e e e e e e e e e e e e e e e e e e e e e e e e e e e e e e L e P L G 5 l 8 7 0 :     ",
"U p 9 9 0 M e e e e e e e e e e e e e e e e e e e e e e e e e e e e e e L L e 2 t $.P 2 4 4 e e e e e e e e e e e e e e e e e e e e e e e e e e e e e e e e e e e e e e e e e e e e e e L e P L G 5 l 8 8 0 :     ",
"U p 9 9 0 M e e e e e e e e e e e e e e e e e e e e e e e e e e e e e e P 4 4 S t L L 4 e T e e e e e e e e e e e e e e e e e e e e e e e e e e e e e e e e e e e e e e e e e e e e e e L e P L G 5 l 8 7 0 :     ",
"U p 9 9 0 M e e e e e e e e e e e e e e e e e e e e e e e e e e e e e e L Y 2 G - G 2 4 e T e e e e e e e e e e e e e e e e e e e e e e e e e e e e e e e e e e e e e e e e e e e e e e L e P L G ; p 8 7 k > # # ",
"U p 9 9 0 M e e e e e e e e e e e e e e e e e e e e e e e e e e e e e e m - m z f P e 4 4 L e e e e e e e e e e e e e e e e e e e e e e e e e e e e e e e e e e e e e e e e e e e e e e L e P L G ; p l p 9 > # # ",
"U p 9 9 0 M e e e e e e e e e e e e e e e e e e e e e e e e e e e e e e Y T - 4 e S 4 L Y T e e e e e e e e e e e e e e e e e e e e e e e e e e e e e e e e e e e e e e e e e e e e e e L e e L S ; l 8 l 9 > # # ",
"U p k 9 k N e e e e e e e e e e e e e e e e e e e e e e e e e e e e e e e L 2 4 4 L P L L P e e e e e e e e e e e e e e e e e e e e e e e e e e e e e e e e e e e e e e e e e e e e e L L e e L m x z.c.C.J x Z.Z.",
"U 8 7 8 0 C e m e e e e e e e e e e e L L L L L L L L L L L L L L L L L 4 P Y L e T L L P P L L L L L L L L L L L L L L L L L L L L L L L L L L L L L L L L L L L L e e e P P e P P P 4 L L P 2 L T A.S.D.F.G.H.H.",
"M 0 l 7 0 h e S 4 P e e e e e e e e e e e e e e e e e e e e e e e e e e e e e e e e e e e e e e e e e e e e e e e e e e e e e e e e e e e e e e e e e e e e e e e e e e P P P P P 4 4 m 2 L m T L J.K.L.P.I.U.Y.Y.",
"c.8 D 8 9 B G L 4 P e e e e e e e e P P P P P P P P P P P P P P P P P P P P P P P P P P P P P P P P P P P P P P P P P P P P P P P P P P P P P P P P P P P P P P P P e e e e e e e e P e T e 4 2 4 P T.R.E.W.W.W.W.",
"S W Q.k 7 p z.m Y L e L L L L L L L L L L L L L L L L L L L L L L L L L L L L L L L L L L L L L L L L L L L L L L L L L L L L L L L L L L L L L L L L L L L L L L L L L L L L L L L L e e P P e $.S K.!.W.~.~.~.~.",
"= > r.8 u 9 V < e P 4 4 4 4 4 4 4 4 P P P P P P P P P P P P P P P P P P P P P P P P P P P P P P P P P P P P P P P P P P P P P P P P P P P P P P P P P P P P P P P P P P P P P 4 4 4 4 2 T L 4 b ; 1 ^./.W.~.~.~.~.",
"n g p 7 v 7 8 q z.G P 4 4 4 4 4 4 4 P P P P P P P P P P P P P P P P P P P P P P P P P P P P P P P P P P P P P P P P P P P P P P P P P P P P P P P P P P P P P P P P P P P P 4 4 4 P 4 4 S ! g 5 N 1 ^.!.W.~.~.~.~.",
"O t R 7 i k l 7 u V U V V V V V V V U U U U U U U U U U U U U U U U U U U U U U U U U U U U U U U U U U U U U U U U U U U U U U U U U U U U U U U U U U U U U U U U U U U U V V V U U 6 6 U v 8 p b (./.W.~.~.~.~.",
".   ! C i E c 8 k 9 8 9 9 9 9 9 9 9 9 9 9 9 9 9 9 9 9 9 9 9 9 9 9 9 9 9 9 9 9 9 9 9 9 9 9 9 9 9 9 9 9 9 9 9 9 9 9 9 9 9 9 9 9 9 9 9 9 9 9 9 9 9 9 9 9 9 9 9 9 9 9 9 9 9 9 9 9 9 9 9 9 8 8 p j p U x T./.W.~.~.~.~.",
"# # o ! B E l 9 k 8 7 7 7 7 7 7 7 7 7 7 7 7 7 7 7 7 7 7 7 7 7 7 7 7 7 7 7 7 7 7 7 7 7 7 7 7 7 7 7 7 7 7 7 7 7 7 7 7 7 7 7 7 7 7 7 7 7 7 7 7 7 7 7 7 7 7 7 7 7 7 7 7 8 8 8 8 8 8 9 8 8 8 8 j v c 6 :.K.!.W.~.~.~.~.",
"n $ $ o - > c i 7 7 7 7 7 8 8 8 8 8 8 8 8 8 8 8 8 8 8 8 8 8 8 8 8 8 8 8 8 8 8 8 8 8 8 8 8 8 8 8 8 8 8 8 8 8 8 8 8 8 8 8 8 8 8 8 8 8 8 8 8 8 8 8 8 8 8 8 8 8 8 8 8 8 8 8 8 8 8 8 8 7 7 8 l u j p M L )._.W.~.~.~.~.",
"o 3 X   3 t J h N c 7 7 8 9 k k k k k k k k k k k k k k k k k k k k k k k k k k k k k k k k k k k k k k k k k k k k k k k k k k k k k k k k k k k k k k k k k k k k 8 8 8 8 8 8 8 7 7 7 u q s R H `.'._.W.~.~.~.~.",
". # X # # o @ O b , N N B q q q q q q q q q q q q q q q q q q q q q q q q q q q q q q q q q q q q q q q q q q q q q q q q q q q q q q q q q q q q q q q q q q q q q q q q q q q B B B s : I - % $ ].[._.W.~.~.~.~.",
"K $ . $ o K # {.n O #   O O O O O O O O O O O O O O O O O O O O O O O O O O O O O O O O O O O O O O O O O O O O O O O O O O O O O O O O O O O O O O O O O O O O O O @ @ @ @ @ @ @ @ @ $ #   r Z.Z.].[._.W.~.~.~.~."
};
