/* XPM */
static char *a2V5X3JpZ2h0[] = {
/* columns rows colors chars-per-pixel */
"102 50 256 2 ",
"   c black",
".  c #010101",
"X  c #020202",
"o  c gray1",
"O  c #040404",
"+  c gray2",
"@  c #060606",
"#  c #070707",
"$  c gray3",
"%  c #090909",
"&  c gray4",
"*  c #0B0B0B",
"=  c #0C0C0C",
"-  c gray5",
";  c #0E0E0E",
":  c gray6",
">  c #101010",
",  c #111111",
"<  c gray7",
"1  c #131313",
"2  c gray8",
"3  c #151515",
"4  c #161616",
"5  c gray9",
"6  c #181818",
"7  c #191919",
"8  c gray10",
"9  c #1B1B1B",
"0  c gray11",
"q  c #1D1D1D",
"w  c #1E1E1E",
"e  c gray12",
"r  c #202020",
"t  c gray13",
"y  c #222222",
"u  c #232323",
"i  c gray14",
"p  c #252525",
"a  c gray15",
"s  c #272727",
"d  c #282828",
"f  c gray16",
"g  c #2A2A2A",
"h  c gray17",
"j  c #2C2C2C",
"k  c #2D2D2D",
"l  c gray18",
"z  c #2F2F2F",
"x  c gray19",
"c  c #313131",
"v  c #323232",
"b  c gray20",
"n  c #343434",
"m  c #353535",
"M  c gray21",
"N  c #373737",
"B  c gray22",
"V  c #393939",
"C  c #3A3A3A",
"Z  c gray23",
"A  c #3C3C3C",
"S  c gray24",
"D  c #3E3E3E",
"F  c #3F3F3F",
"G  c gray25",
"H  c #414141",
"J  c gray26",
"K  c #434343",
"L  c #444444",
"P  c gray27",
"I  c #464646",
"U  c gray28",
"Y  c #484848",
"T  c #494949",
"R  c gray29",
"E  c #4B4B4B",
"W  c #4C4C4C",
"Q  c gray30",
"!  c #4E4E4E",
"~  c gray31",
"^  c #505050",
"/  c #515151",
"(  c gray32",
")  c #535353",
"_  c gray33",
"`  c #555555",
"'  c #565656",
"]  c gray34",
"[  c #585858",
"{  c gray35",
"}  c #5A5A5A",
"|  c #5B5B5B",
" . c gray36",
".. c #5D5D5D",
"X. c gray37",
"o. c #5F5F5F",
"O. c #606060",
"+. c gray38",
"@. c #626262",
"#. c gray39",
"$. c #646464",
"%. c #656565",
"&. c gray40",
"*. c #676767",
"=. c #686868",
"-. c DimGray",
";. c #6A6A6A",
":. c gray42",
">. c #6C6C6C",
",. c #6D6D6D",
"<. c gray43",
"1. c #6F6F6F",
"2. c gray44",
"3. c #717171",
"4. c #727272",
"5. c gray45",
"6. c #747474",
"7. c gray46",
"8. c #767676",
"9. c #777777",
"0. c gray47",
"q. c #797979",
"w. c gray48",
"e. c #7B7B7B",
"r. c #7C7C7C",
"t. c gray49",
"y. c #7E7E7E",
"u. c gray50",
"i. c #808080",
"p. c #818181",
"a. c gray51",
"s. c #838383",
"d. c #848484",
"f. c gray52",
"g. c #868686",
"h. c gray53",
"j. c #888888",
"k. c #898989",
"l. c gray54",
"z. c #8B8B8B",
"x. c gray55",
"c. c #8D8D8D",
"v. c #8E8E8E",
"b. c gray56",
"n. c #909090",
"m. c gray57",
"M. c #929292",
"N. c #939393",
"B. c gray58",
"V. c #959595",
"C. c gray59",
"Z. c #979797",
"A. c #989898",
"S. c gray60",
"D. c #9A9A9A",
"F. c #9B9B9B",
"G. c gray61",
"H. c #9D9D9D",
"J. c gray62",
"K. c #9F9F9F",
"L. c #A0A0A0",
"P. c gray63",
"I. c #A2A2A2",
"U. c gray64",
"Y. c #A4A4A4",
"T. c #A5A5A5",
"R. c gray65",
"E. c #A7A7A7",
"W. c gray66",
"Q. c #A9A9A9",
"!. c #AAAAAA",
"~. c gray67",
"^. c #ACACAC",
"/. c gray68",
"(. c #AEAEAE",
"). c #AFAFAF",
"_. c gray69",
"`. c #B1B1B1",
"'. c #B2B2B2",
"]. c gray70",
"[. c #B4B4B4",
"{. c gray71",
"}. c #B6B6B6",
"|. c #B7B7B7",
" X c gray72",
".X c #B9B9B9",
"XX c gray73",
"oX c #BBBBBB",
"OX c #BCBCBC",
"+X c gray74",
"@X c gray",
"#X c gray75",
"$X c #C0C0C0",
"%X c #C1C1C1",
"&X c gray76",
"*X c #C3C3C3",
"=X c gray77",
"-X c #C5C5C5",
";X c #C6C6C6",
":X c gray78",
">X c #C8C8C8",
",X c gray79",
"<X c #CACACA",
"1X c #CBCBCB",
"2X c gray80",
"3X c #CDCDCD",
"4X c #CECECE",
"5X c gray81",
"6X c #D0D0D0",
"7X c gray82",
"8X c #D2D2D2",
"9X c LightGray",
"0X c gray83",
"qX c #D5D5D5",
"wX c gray84",
"eX c #D7D7D7",
"rX c #D8D8D8",
"tX c gray85",
"yX c #DADADA",
"uX c gray86",
"iX c gainsboro",
"pX c #DDDDDD",
"aX c gray87",
"sX c #DFDFDF",
"dX c gray88",
"fX c #E1E1E1",
"gX c #E2E2E2",
"hX c gray89",
"jX c #E4E4E4",
"kX c gray90",
"lX c #E6E6E6",
"zX c #E7E7E7",
"xX c gray91",
"cX c #E9E9E9",
"vX c #EAEAEA",
"bX c gray92",
"nX c #ECECEC",
"mX c gray93",
"MX c #EEEEEE",
"NX c #EFEFEF",
"BX c gray94",
"VX c #F1F1F1",
"CX c gray95",
"ZX c #F3F3F3",
"AX c #F4F4F4",
"SX c gray96",
"DX c #F6F6F6",
"FX c gray97",
"GX c #F8F8F8",
"HX c #F9F9F9",
"JX c gray98",
"KX c #FBFBFB",
"LX c gray99",
"PX c #FDFDFD",
"IX c #FEFEFE",
"UX c white",
/* pixels */
"8 3 5 0 8 3 6 9 7 6 9 0 0 9 9 9 9 9 9 9 9 9 9 9 9 9 9 9 9 9 9 9 9 9 9 9 9 9 9 9 9 9 9 9 9 9 9 9 9 9 9 9 9 9 9 9 9 9 9 9 9 9 9 9 9 9 9 9 9 9 9 9 9 9 9 9 9 9 9 9 9 9 9 9 9 7 8 9 0 q w q 8 6 8 4 8 q 8 4 6 6 ",
"5 7 0 6 5 0 t j A I ! ] ' ) ) ) ) ) ) ) ) ) ) ) ) ) ) ) ) ) ) ) ) ) ) ) ) ) ) ) ) ) ) ) ) ) ) ) ) ) ) ) ) ) ) ) ) ) ) ) ) ) ) ) ) ) ) ) ) ) ) ) ) ) ) ) ) ) ) ) ) ) ) ) ) ( / / ^ ^ ~ Q T L h w 5 3 4 8 8 4 ",
"7 9 9 6 p Z I ~ O.@.| X.+.o.o.o.o.o.o.o.o.o.o.o.o.o.o.o.o.o.o.o.o.o.o.o.o.o.o.o.o.o.o.o.o.o.o.o.o.o.o.o.o.o.o.o.o.o.o.o.o.o.o.o.o.o.o.o.o.o.o.o.o.o.o.o.o.o.o.o.o.o.o.o.o.@.+.+.O.O.o...} ' Q L l q 7 0 9 7 ",
"8 5 5 a G ' X.O.;.&. ...O.O.O.O.O.O.O.O.O.O.O.O.O.O.O.O.O.O.O.O.O.O.O.O.O.O.O.O.O.O.O.O.O.O.O.O.O.O.O.O.O.O.O.O.O.O.O.O.O.O.O.O.O.O.O.O.O.O.O.O.O.O.O.O.O.O.O.O.O.O.O.O.O.o.o.O.+.+.+.+.O.X.+.@.~ m u 8 3 6 ",
"6 8 s L } X.o.X.@.+.o.O.+.@.@.@.@.@.@.@.@.@.@.@.@.@.@.@.@.@.@.@.@.@.@.@.@.@.@.@.@.@.@.@.@.@.@.@.@.@.@.@.@.@.@.@.@.@.@.@.@.@.@.@.@.@.@.@.@.@.@.@.@.@.@.@.@.@.@.@.@.@.@.@.+.o.o.O.O.O.+.@.@.+.O.#.O.) Z y 3 6 ",
"5 d U ..O...O.+.....+.o.X.X.X.X.X.X.X.X.X.X.X.X.X.X.X.X.X.X.X.X.X.X.X.X.X.X.X.X.X.X.X.X.X.X.X.X.X.X.X.X.X.X.X.X.X.X.X.X.X.X.X.X.X.X.X.X.X.X.X.X.X.X.X.X.X.X.X.X.X.X.X.X.X.X.o.o.X.....X.o.O.O.[ X.%.{ C y 9 ",
"6 C  .o.{ o.*.$.` ! ^ / ! W W W W W W W W W W W W W W W W W W W W W W W W W W W W W W W W W W W W W W W W W W W W W W W W W W W W W W W W W W W W W W W W W W W W W W W W ~ ~ ~ ~ ! ! ~ / _ *.] { &.%./ b 8 ",
"q Q  ...+.@.` G z s p d g g g g g g g g g g g g g g g g g g g g g g g g g g g g g g g g g g g g g g g g g g g g g g g g g g g g g g g g g g g g g g g g g g g g g g g g g f f g f f g h z b ) `  ... .| G 5 ",
"j =.%.X.$. .G k z x h g g f f f f f f f f f f f f f f f f f f f f f f f f f f f f f f f f f f f f f f f f f f f f f f f f f f f f f f f f f f f f f f f f f f f f f f f f g h g f f f g k z c W *.O.} %.( 0 ",
"Q O.O.O.o.R k j h j j g f g g g g g g g g g g g g g g g g g g g g g g g g g g g g g g g g g g g g g s x j s h l h g h h g g g h g f d g g g g g g g g g g g g g g g g g g g g g g g g g g g s m ` | ..*./ 8 ",
"_ X.o.+...I g h g h j g f g g g g g g g g g g g g g g g g g g g g g g g g g g g g g g g g g g g h k s f s s g d p s g g g g h h h f f g g g g g g g g g g g g g g g g g g g g g g g g g g g s z ^  .X.%.^ 9 ",
"] o.X.O...I g g f g j g f g g g g g g g g g g g g g g g g g g g g g g g g g g g g g g g g g g g d s l j d g g d f h f f g h g g g g g g g g g g g g g g g g g g g g g g g g g g g g g g g g d k ^ o.X.@./ 0 ",
"} o.X.O. .P f g f g j g f g g g g g g g g g g g g g g g g g g g g g g g g g g g g g g g g g g g f g c f s g g h k h f f g h g g g h j g g g g g g g g g g g g g g g g g g g g g g g g g g g g f ~ @.o.O./ w ",
"..o.X.o.| L d g f g j g f g g g g g g g g g g g g g g g g g g g g g g g g g g g g g g g g g g g h k g y h z g g h s f f g h h g f h k g g g g g g g g g g g g g g g g g g g g g g g g g g g j s ~ %.O.o.( e ",
"o.o.o.o.| L d f f g j g f g g g g g g g g g g g g g g g g g g g g g g g g g g g g g g g g g g g g f i p b v f f j d g f f g h g f g j g g g g g g g g g g g g g g g g g g g g g g g g g g g l p ~ &.O.o.( w ",
"O.X.o.O.| L d f f g j g f g g g g g g g g g g g g g g g g g g g g g g g g g g g g g g g g g g g h l l g d p a k c l k f d g j h f g h g g g g g g g g g g g g g g g g g g g g g g g g g g g l i ~ &.O.O.) 0 ",
"O...O.O.| L d g f h j g f g g g g g g g g g g g g g g g g g g g g g g g g g g g g g g g g g g g f g l h s x M v n C l f a f j j f f g g g g g g g g g g g g g g g g g g g g g g g g g g g g k p ^ &.o.+.) 7 ",
"O. .O.+.| L d g f h k g f g g g g g g g g g g g g g g g g g g g g g g g g g g g g g g g g g g g g g k f a k j M w.T.b g a d j j g f f g g g g g g g g g g g g g g g g g g g g g g g g g g g k p ^ %.o.#._ 6 ",
"#...o.+.} K f f j d j g f g g g g g g g g g g g g g g g g g g f f f f k s f j f d j s l l p d j s d h g p d k A c.kXD.P t s j h j g u g g g g g g g g g g g g g g g g g g g g g g g g g g g h d ~ @.o.@.) 8 ",
"$...o.+.} K f f j d j g f g g g g g g g g g g g g g g g g g h j h f s k g j h s h z i s h h k h s h s h z x f c l.IXpXm.U s p g h j l g g g g g g g g g g g g g g g g g g g g g g g g g g g h d ~ +.X.@.( 9 ",
"$...o.+.} K f f j d j g f g g g g g g g g g g g g g g g g g g h h j f k a d d i a k d u t f s p g s p s f h g n f.GXGXpXc.H a s d g x g g g g g g g g g g g g g g g g g g g g g g g g g g g h d ~ +.X.@.( 9 ",
"$...o.+.} K f f j d j g f g g g g g g g g g g g g g g g g g g f f j j h a S $.8.o.x c  .5.;.S a T 5.2.~ d c +.d.`.DXUXPXwXx.T g s f f g g g g g g g g g g g g g g g g g g g g g g g g g g g h d ~ +.X.@.( 9 ",
"$...o.+.} K f f j d j g f g g g g g g g g g g g g g g g g g h g a d f f k &.@XVX+XN V ~.mX7X:.k 2.vXaXv.N Y ).mXAXUXKXHXUXyXe.M d k d g g g g g g g g g g g g g g g g g g g g g g g g g g g h d ~ +.X.@.( 9 ",
"$...o.+.} K f f j d j g f g g g g g g g g g g g g g g g g g h h d d s a h @.].jX}.n C K.9X+X*.j &.yX2Xd.N R W.sXcXKXSXGXHXyXa.C p h l g g g g g g g g g g g g g g g g g g g g g g g g g g g h d ~ +.X.@.( 9 ",
"$...o.+.} K f f j d j g f g g g g g g g g g g g g g g g g g d s j l g g i v U ) Y s n P F K n d N T R D g x T +.K.SXSXJXiXk.W z i i h g g g g g g g g g g g g g g g g g g g g g g g g g g g h d ~ +.X.@.( 9 ",
"$...o.+.} K f f j d j g f g g g g g g g g g g g g g g g g g d s j l h x h j h f j a j k h v l h z g j b v l a b c.UXKXgXN.I d g j d f g g g g g g g g g g g g g g g g g g g g g g g g g g g h d ~ +.X.@.( 9 ",
"$...o.+.} K f f j d j g f g g g g g g g g g g g g g g g g g h j h h g l s f j d g c j a k k p p j h f d s g j B h.JXVXj.H l f d j z h g g g g g g g g g g g g g g g g g g g g g g g g g g g h d ~ +.X.@.( 9 ",
"#.X.o.O.} K f f k d j g f g g g g g g g g g g g g g g g g g g h g g g h f g h g g k h d h h d d h j s h a f f M x.bXF.Z j g h j z l g g g g g g g g g g g g g g g g g g g g g g g g g g g g h d ~ +.X.@.( 9 ",
"#.o.o.O.} K f f k d j g f g g g g g g g g g g g g g g g g g g g g g g g g g g g g g g g g g g g g g d v g g k N 4.U.T r n k d s f h h g g g g g g g g g g g g g g g g g g g g g g g g g g g h d ~ +.X.@.( 9 ",
"#.o.o.O.} K f f k d j g f g g g g g g g g g g g g g g g g g g g g g g g g g g g g g g g g g g g g d f c g a l N U ~ f i m f d h h h g g g g g g g g g g g g g g g g g g g g g g g g g g g g h d ~ +.X.@.( 9 ",
"#.o.o.O.} K f f k d j g f g g g g g g g g g g g g g g g g g g g g g g g g g g g g g g g g g g g h h d j d u d x l f j j k t j b z h d g g g g g g g g g g g g g g g g g g g g g g g g g g g h d ~ +.X.@.( 9 ",
"#.o.o.O.} K f f k d j g f g g g g g g g g g g g g g g g g g g g g g g g g g g g g g g g g g g g h l f f k h f h h d k k g p k h s g g g g g g g g g g g g g g g g g g g g g g g g g g g g g h d ~ +.X.@.( 9 ",
"#.o.o.O.} K f f k d j g f g g g g g g g g g g g g g g g g g g g g g g g g g g g g g g g g g g g g f g s z b k d g h s d h l z s a j g g g g g g g g g g g g g g g g g g g g g g g g g g g g h d ~ +.X.@.( 9 ",
"#.o.o.O.} K f f k d j g f g g g g g g g g g g g g g g g g g g g g g g g g g g g g g g g g g g g f d h p a k j d d h j f h k j j x x a g g g g g g g g g g g g g g g g g g g g g g g g g g g h d ~ +.X.@.( 9 ",
"#.o.o.O.} K f f k d j g f g g g g g g g g g g g g g g g g g g g g g g g g g g g g g g g g g g g h l l h s f k k j k g j l g i p g j f g g g g g g g g g g g g g g g g g g g g g g g g g g g h d ~ +.X.@.( 9 ",
"#.o.o.O.} K g f k d j g f g g g g g g g g g g g g g g g g g g g g g g g g g g g g g g g g g g g g g d z l f g h g h k j h f g l j d j g g g g g g g g g g g g g g g g g g g g g g g g g g g h d ~ +.o.@.( 9 ",
"@.} O.+.} P d d g i z h d f f f f f f f f f f f f f f f f f f f f f f f f f f f f f f f f f f f f d d j j f f f f f h g f f h j g d g f f f f f f f f f f f f f f f f f f f f f f f f f f f j u ^ %.X.@.' 8 ",
"| [ +.O.} I s g l p k f s g g g g g g g g g g g g g g g g g g g g g g g g g g g g g g g g g g g g g g g g g g g g g g g g g g g g g g g g g g g g g g g g g g g g g g g g g g g g g g g g h k p ~ +. .$.] 5 ",
"~  .+.O. .T h h v f d a d g g g g g g g g g g g g g g g g g g g g g g g g g g g g g g g g g g g g g g g g g g g g g g g g g g g g g g g g g g g g g g g g g g g g g g g g g g g g g g g g h g c )  . .=.) 4 ",
"J O.@.o.o.( N g j g d h h f f f f f f f f f f f f f f f f f f f f f f f f f f f f f f f f f f f f f f f f f f f f f f f f f f f f f f f f f f f f f f f f f f f f f f f f d d f f g g g g g d G ..X.X.=.~ 6 ",
"m { +.X.X. .W n f h k l j g h h h h h h h h h h h h h h h h h h h h h h h h h h h h h h h h h h h h h h h h h h h h h h h h h h h h h h h h h h h h h h h h h h h h h h h g g h h h j j k l B / @.X.X.#.R r ",
"p P ..$.+.O.o.E b z k d g l l l l l l l l l l l l l l l l l l l l l l l l l l l l l l l l l l l l l l l l l l l l l l l l l l l l l l l l l l l l l l l l l l l l l l l l z z x x c c v v m `  .|  .X.] S u ",
"6 k ~ @...{ $.*.| [ } | } | | | | | | | | | | | | | | | | | | | | | | | | | | | | | | | | | | | | | | | | | | | | | | | | | | | | | | | | | | | | | | | | | | | | | | | | | |  . . .....X.X.@.| | %.+.P a 9 ",
"3 w N ) o...X.@.@.X...O.O.o.o.o.o.o.o.o.o.o.o.o.o.o.o.o.o.o.o.o.o.o.o.o.o.o.o.o.o.o.o.o.o.o.o.o.o.o.o.o.o.o.o.o.o.o.o.o.o.o.o.o.o.o.o.o.o.o.o.o.o.o.o.o.o.o.o.o.o.o.o.o.o.o.o.o.o.o.o.o.o.o. .} o.@.( x 5 3 ",
"5 8 y B ] &...[ $.#.X.o.O.o.o.o.o.o.o.o.o.o.o.o.o.o.o.o.o.o.o.o.o.o.o.o.o.o.o.o.o.o.o.o.o.o.o.o.o.o.o.o.o.o.o.o.o.o.o.o.o.o.o.o.o.o.o.o.o.o.o.o.o.o.o.o.o.o.o.o.o.o.o.o.o.O.O.O.O.O.O.O.O.O.X.#.X.E b r 6 6 ",
"7 7 7 w n ~ } O.&.#.X.X.o.o.o.o.o.o.o.o.o.o.o.o.o.o.o.o.o.o.o.o.o.o.o.o.o.o.o.o.o.o.o.o.o.o.o.o.o.o.o.o.o.o.o.o.o.o.o.o.o.o.o.o.o.o.o.o.o.o.o.o.o.o.o.o.o.o.o.o.o.o.o.o.o.o.O.O.+.O.o.o.o.O.$.[ J j w 8 7 7 ",
"7 7 7 8 w f C E ' X.@.#.@.@.@.@.@.@.@.@.@.@.@.@.@.@.@.@.@.@.@.@.@.@.@.@.@.@.@.@.@.@.@.@.@.@.@.@.@.@.@.@.@.@.@.@.@.@.@.@.@.@.@.@.@.@.@.@.@.@.@.@.@.@.@.@.@.@.@.@.@.@.@.@.@.@.@.+.@.+.O. .' ( T n r 6 7 7 4 4 ",
"7 7 6 w q 5 5 t n P Q Q E E E E E E E E E E E E E E E E E E E E E E E E E E E E E E E E E E E E E E E E E E E E E E E E E E E E E E E E E E E E E E E E E E E E E E E E E ! E T T E E P A b w 6 5 7 8 7 4 4 ",
"6 6 6 4 3 7 0 9 7 4 3 3 5 6 6 6 6 6 6 6 6 6 6 6 6 6 6 6 6 6 6 6 6 6 6 6 6 6 6 6 6 6 6 6 6 6 6 6 6 6 6 6 6 6 6 6 6 6 6 6 6 6 6 6 6 6 6 6 6 6 6 6 6 6 6 6 6 6 6 6 6 6 6 6 6 7 5 3 4 7 9 9 6 3 7 9 0 q 0 9 8 8 ",
"6 6 6 8 0 9 7 4 2 3 7 w q 8 8 8 8 8 8 8 8 8 8 8 8 8 8 8 8 8 8 8 8 8 8 8 8 8 8 8 8 8 8 8 8 8 8 8 8 8 8 8 8 8 8 8 8 8 8 8 8 8 8 8 8 8 8 8 8 8 8 8 8 8 8 8 8 8 8 8 8 8 8 8 8 8 8 9 8 7 5 6 8 9 7 5 3 1 1 3 6 6 "
};
