/* XPM */
static char *_2f8d86d27dd4fe3ff5aea074aee6e1cKrzZISBmMnDQe3we[] = {
/* columns rows colors chars-per-pixel */
"39 50 79 1 ",
"  c #000000",
". c #0C0405",
"X c #0C0C0C",
"o c #120506",
"O c #130609",
"+ c #1A0709",
"@ c #14080A",
"# c #1C0909",
"$ c #100F11",
"% c #131313",
"& c #191212",
"* c #1A1A1A",
"= c #220707",
"- c #240A0C",
"; c #2D1617",
": c #291817",
"> c #301617",
", c #232423",
"< c #2B2B2B",
"1 c #3D2E2E",
"2 c #3B312F",
"3 c #3C2F31",
"4 c #353535",
"5 c #3B3132",
"6 c #373A37",
"7 c #3B3937",
"8 c #373738",
"9 c #373838",
"0 c #3A3A3A",
"q c #471213",
"w c #581517",
"e c #551817",
"r c #5F191B",
"t c #6C1E1E",
"y c #731C1D",
"u c #462323",
"i c #4E2423",
"p c #512123",
"a c #752123",
"s c #454445",
"d c #8F221E",
"f c #8D1E22",
"g c #8A2122",
"h c #902323",
"j c #9A2123",
"k c #A62324",
"l c #AC2021",
"z c #AF2021",
"x c #AD2123",
"c c #AA2525",
"v c #A92727",
"b c #AD2426",
"n c #A62629",
"m c #B12224",
"M c #B32224",
"N c #B02326",
"B c #B02426",
"V c #B42424",
"C c #BB2023",
"Z c #B82227",
"A c #DE1F1C",
"S c #DF1E1D",
"D c #DE1F1D",
"F c #E21E1C",
"G c #E21D1E",
"H c #E11E1F",
"J c #E01F1F",
"K c #E41D1D",
"L c #E41E1C",
"P c #E51E1F",
"I c #E81D1E",
"U c #DC201D",
"Y c #DF1F20",
"T c #E21E21",
"R c #CB2022",
"E c #CC2123",
"W c #CF2323",
"Q c #D12323",
"! c #D32224",
/* pixels */
"            .      .                   ",
"             .@===X .XX.X.             ",
"       .   -efbVCZt.,84004,X           ",
"         @rMQTTTHHdo<0006064<X         ",
"        -gQHFAGKHHg@<000000004%        ",
"   .   -jSTSGGAKHNi:,4000000004%       ",
"      @gSSHSHAHGEp406<4000000004X      ",
"      wQAGGHHGHHN10064<000000000<      ",
"     #bPUHHLGHAAk4000440000000008%     ",
"     qQIJJHHHAHLk5000440000000006,     ",
"     yHHULHHLFAFk50004400000000004.    ",
"    .gHHHHHLHHHHk50004400000000064X    ",
"    #nHHHLFHAHLHk10004400000000004X    ",
"    #NHHHHHHHHAHk50004400000000008$    ",
"    +bTHHHHHHHLLk20004400000000006X    ",
"    +bHHHLLFHHAHk50004400000000004%    ",
"  . +NHTHSSHHHAHV30004<00000000004$    ",
"    +xHLLHLFFHLAEi0s8<800000000009$    ",
"    #cHHHHFHHHFSTNu*,4000000880000$    ",
"    .axxlzlllzzMNnp *444444444449<X    ",
"     @>:;;;;>;;;>:&%%***********%%     ",
"     ,004990080000000000008000080<.    ",
"    .90000000000000000000000000000X    ",
"    X80000000000000000000000000004%    ",
"    X60000000000000000000000000009$    ",
"    .60000000000000000000000000009$    ",
"    X80000000000000000000000000009$    ",
"    .80000000000000000000000000009$    ",
"    X96000000000000000000000000004$    ",
"    X40000000000000000000800000008@    ",
"    X80000000000000000000000000006X    ",
"    .60000000700000000000000000004%    ",
"    .60000000000000000000000000008@    ",
"    X60000000000000000000000000009$    ",
"    X40000000000000000000000000009$    ",
"    X80000000000000000000000000009X    ",
"    .<0000000000000000000000000009X    ",
"     ,000000000000000000000000000<.    ",
"     *000000000600000000000000000,     ",
"     X600000000000000000000000000%     ",
"      ,0000000000000000000000060<.     ",
"      X4000000000000000000000008%      ",
"       *00000000000000000000006,       ",
"        *000000000000000000000<X       ",
"         ,0000000000000000006<         ",
"          *40000000000000008,.         ",
"           X,8000000000008<X           ",
"             .*<<48484<<*X             ",
"                . XXX.                 ",
"                                       "
};
