/* XPM */
static char *d34efa78c8954caae6ca77a5acbc417dzOEZ2BejSCyci8dH[] = {
/* columns rows colors chars-per-pixel */
"35 50 73 1 ",
"  c #010001",
". c #0A0303",
"X c #0F0509",
"o c #0B0B0B",
"O c #120E0D",
"+ c #1D0A0A",
"@ c #0F0F10",
"# c #0F1011",
"$ c #131313",
"% c #1A1A1A",
"& c #230B0A",
"* c #2B0A0D",
"= c #330E0E",
"- c #2A1717",
"; c #361314",
": c #391315",
"> c #201E22",
", c #262626",
"< c #2C2428",
"1 c #2A2A2A",
"2 c #352A2A",
"3 c #3A2828",
"4 c #353535",
"5 c #393536",
"6 c #383837",
"7 c #373738",
"8 c #3A3A3A",
"9 c #461313",
"0 c #571717",
"q c #53171A",
"w c #561919",
"e c #5F191A",
"r c #691517",
"t c #651618",
"y c #6C1A1B",
"u c #7B1C1D",
"i c #66211F",
"p c #7B1D21",
"a c #7A2023",
"s c #444244",
"d c #892022",
"f c #802E2A",
"g c #912224",
"h c #9B2123",
"j c #A52325",
"k c #B42326",
"l c #B42524",
"z c #BB2222",
"x c #BB2223",
"c c #BE2222",
"v c #BE2423",
"b c #DF1F1D",
"n c #DF1E1E",
"m c #E21E1C",
"M c #E21E1D",
"N c #E01D1F",
"B c #E11D1F",
"V c #E41D1C",
"C c #E41E1D",
"Z c #E51E1D",
"A c #E51D1F",
"S c #D9221F",
"D c #DD201F",
"F c #DF1F20",
"G c #E31F20",
"H c #C32325",
"J c #C92223",
"K c #D62120",
"L c #D62122",
"P c #DA2120",
"I c #DE2120",
"U c #DC2324",
"Y c #A04341",
/* pixels */
"                   ....       .    ",
"         .#%,1,,%.-auuy0=X         ",
"        $188888s4.tUCUUSvd9Xo      ",
"      o,888888884.rDCBBDBGHu+      ",
"     o18888888881.qvUGmmNNnFh* o   ",
"    .18888888881142iJBBBNNnnDg+    ",
"    >888888888417882gIBBNNnnFGp.   ",
"   o4888888888418887yICBCNFnFGH;   ",
"   ,8888888888418884yDBBNNBBmBSu.  ",
"   48888888888418885ySmnBVmDmBBk&  ",
"  o48888888888418884ySVBBBnGDDBK9  ",
"  $88888888888418884yBCBmmBBBGGKe  ",
"  $88888888888418888yBBBBBGDVBBDy  ",
"  $88888888888418884ySVbmBnBCBBSy  ",
"  $88888888888418885yDVbBmBVBBBSy  ",
"  $88888888888418886ySBBBBBBBBCSy  ",
"  %88888888888418885aSBBBBBVDbBDy  ",
"  $888888888864,6ss3jBBmmBBDbbBSy  ",
"  $8884888888884,><fSBDBBmmmBVBDy  ",
"  O7488446477447,.2Ycvcxxxxxvcclw  ",
"   $%%%%%%%%%%%%$oO-;;;:;;;;;;;;X  ",
"  .14844444447478484747448484461@  ",
"  $88888888888888888888888888888,  ",
"  $88888888888888888888888888888,  ",
"  $888888488888888888888888888881  ",
"  $88888888888888888888888888888,  ",
"  $888888888888888888888888888881  ",
"  $88888888888888888888888888888,  ",
"  $888886888888888888888888888881  ",
"  $88888888888888888888888888888,  ",
"  $888888888888888888888888888881  ",
"  $88888888888888888888888888888,  ",
"  $888788888887886888888888888881  ",
"  $888888888888888888888868888881  ",
"  $88888888888888888888888888888,  ",
"  $88888888888888888888888888888,  ",
"  $88888888888888788888888888888,  ",
"  #88888888888888888888888888868%  ",
"  .78888888888888888888778888887$  ",
"   18888888887888888888888888884o  ",
"   %888888888888878888888888888,   ",
"   o488888888888888888888888887$   ",
"    %8887888888688888888888888,.   ",
"     1888888888888888888888784o    ",
"     o48888888888888888888884$     ",
"      o188888888888888888884$      ",
"       o1886888888888888881$       ",
"         %488788888888884%o        ",
"          .$,448888874,%o          ",
"             oo$%%%%$o             "
};
