/* XPM */
static char *_840c55014554b7a924a11b1e3f3df1cTxmccqWamTyemBBJ[] = {
/* columns rows colors chars-per-pixel */
"96 64 249 2 ",
"   c #080709",
".  c #120E0E",
"X  c #0D0D13",
"o  c #110F12",
"O  c #131114",
"+  c #18161A",
"@  c #15100F",
"#  c #231B1A",
"$  c #2D221E",
"%  c #1C1C22",
"&  c #1E242B",
"*  c #1E2125",
"=  c #232425",
"-  c #23252D",
";  c #25292E",
":  c #2B2B2C",
">  c #2A2828",
",  c #392B27",
"<  c #3A372D",
"1  c #252B33",
"2  c #2A2C34",
"3  c #2B2E39",
"4  c #242730",
"5  c #2D323A",
"6  c #2B3135",
"7  c #3C3B34",
"8  c #32343D",
"9  c #3C3D3B",
"0  c #363636",
"q  c #312E33",
"w  c #201F22",
"e  c #45362D",
"r  c #443C37",
"t  c #54382F",
"y  c #663F39",
"u  c #3D413A",
"i  c #4C4B2D",
"p  c #464529",
"a  c #56542C",
"s  c #4D4B32",
"d  c #44433C",
"f  c #484638",
"g  c #564A37",
"h  c #545333",
"j  c #595434",
"k  c #5C5A33",
"l  c #5A553B",
"z  c #58573B",
"x  c #4E5030",
"c  c #635C3A",
"v  c #664B38",
"b  c #5E6134",
"n  c #656335",
"m  c #64633A",
"M  c #6B653B",
"N  c #6B6838",
"B  c #736C3C",
"V  c #736C35",
"C  c #78753B",
"Z  c #686634",
"A  c #343641",
"S  c #353944",
"D  c #3A3B45",
"F  c #3B3E4B",
"G  c #373A45",
"H  c #373C4B",
"J  c #423E49",
"K  c #3C414C",
"L  c #3E4543",
"P  c #3E4351",
"I  c #3F4953",
"U  c #434443",
"Y  c #494642",
"T  c #4B4A44",
"R  c #42424D",
"E  c #4C4D4C",
"W  c #464946",
"Q  c #574945",
"!  c #4C5248",
"~  c #53544C",
"^  c #5B5B4D",
"/  c #585746",
"(  c #434553",
")  c #444956",
"_  c #4B4B54",
"`  c #464A59",
"'  c #4A4C5B",
"]  c #464656",
"[  c #514E5A",
"{  c #4D535A",
"}  c #525453",
"|  c #5A5D53",
" . c #565959",
".. c #674C45",
"X. c #675A47",
"o. c #78564A",
"O. c #795B52",
"+. c #6C554E",
"@. c #5C6258",
"#. c #5A634C",
"$. c #6C634C",
"%. c #686646",
"&. c #736C43",
"*. c #736B4C",
"=. c #7B744B",
"-. c #787447",
";. c #63645B",
":. c #696857",
">. c #746A57",
",. c #6C7359",
"<. c #7C7354",
"1. c #787657",
"2. c #6C7449",
"3. c #4C4E61",
"4. c #4E5161",
"5. c #525362",
"6. c #595B64",
"7. c #5B6366",
"8. c #5F7564",
"9. c #646A64",
"0. c #676966",
"q. c #776D64",
"w. c #6D7369",
"e. c #777768",
"r. c #787B76",
"t. c #687073",
"y. c #837B3D",
"u. c #895B4F",
"i. c #847B48",
"p. c #886559",
"a. c #966959",
"s. c #847A58",
"d. c #8A614E",
"f. c #A46E5D",
"g. c #986C65",
"h. c #857B66",
"j. c #9B7569",
"k. c #857E76",
"l. c #8C6F65",
"z. c #A77969",
"x. c #B47A6B",
"c. c #B47A76",
"v. c #A6726C",
"b. c #A35F67",
"n. c #C27F7A",
"m. c #7B813B",
"M. c #798651",
"N. c #798264",
"B. c #798278",
"V. c #848A3F",
"C. c #89854A",
"Z. c #898558",
"A. c #958A59",
"S. c #98965A",
"D. c #90934D",
"F. c #A1995C",
"G. c #898566",
"H. c #948A68",
"J. c #9A9668",
"K. c #888877",
"L. c #968B77",
"P. c #999577",
"I. c #8A976D",
"U. c #A59B67",
"Y. c #AB8476",
"T. c #B8877B",
"R. c #A49A78",
"E. c #B58873",
"W. c #99A36A",
"Q. c #98A775",
"!. c #A7A56A",
"~. c #AAA877",
"^. c #B4AA7B",
"/. c #B8B779",
"(. c #ADAF70",
"). c #A0A558",
"_. c #C0937B",
"`. c #B8C175",
"'. c #C1C575",
"]. c #707A84",
"[. c #7C8586",
"{. c #7A9182",
"}. c #868B86",
"|. c #8C9587",
" X c #999888",
".X c #8B9795",
"XX c #969A96",
"oX c #928C8B",
"OX c #B98B83",
"+X c #A69B86",
"@X c #BC9588",
"#X c #A59A96",
"$X c #BB9991",
"%X c #98A599",
"&X c #98A48C",
"*X c #A9A488",
"=X c #B5AA86",
"-X c #AAB688",
";X c #B8B488",
":X c #A8A897",
">X c #B5A898",
",X c #ABB594",
"<X c #B6B99A",
"1X c #8C9AAB",
"2X c #99A6A6",
"3X c #91A1B5",
"4X c #A5AAA8",
"5X c #A7B3AB",
"6X c #B7B8A5",
"7X c #A3ACB7",
"8X c #AAB6B6",
"9X c #B6BBB9",
"0X c #B8AAAB",
"qX c #B09FA6",
"wX c #C28C85",
"eX c #C5978A",
"rX c #C79B93",
"tX c #D19E92",
"yX c #CBA298",
"uX c #C7B395",
"iX c #C9AFAD",
"pX c #B9C494",
"aX c #B9C4AA",
"sX c #C8C886",
"dX c #D2D894",
"fX c #D8E196",
"gX c #E5E29A",
"hX c #CACCAD",
"jX c #E2DCB8",
"kX c #DAE3A7",
"lX c #E5E4A5",
"zX c #E2DE97",
"xX c #ABB6C9",
"cX c #B3BCC7",
"vX c #B7BFD1",
"bX c #99A6C2",
"nX c #BAC4C6",
"mX c #BBC4D4",
"MX c #C7CBC9",
"NX c #C4CCD7",
"BX c #CBD3DA",
"VX c #D7DAD7",
"CX c #D0D3CC",
"ZX c #E3E3D6",
"AX c #CED6E1",
"SX c #D5DAE3",
"DX c #E5E6E5",
"FX c #F8F8F7",
"GX c #DCE1E0",
/* pixels */
"CX5X*X6X9X9X>X6X6X>X*XH.~./.~.sXzXfXsX'.dXfXlXdXsX=X=X!.W.J.W.S.A.H.A.Z.Z.U.!./.;XhXhX<X*XP.Z.,.:.:.#.) 3 & H 3.` I I ` I I ; } k.oXoX#XqXqXqX0XiX0XiXcXiXiXiX>XK./ p p r 6 * + * % + + + > z #.",
"VX0X:XiXhXMX:XR.-X*XH.G.~.=X~./.sX/.(./.`.dXdX'.!.!.!.!.J.Z.M.Z.A.S.J.J.F.!./.^.uXhXiX*XP.J.Z.=.%./ ! L 3 4 S I I 3.4.` 4.I 6 7.#XiXiXiXiX0XcXiXcXiXiXqX0X0X5X Xh.^ f s p 8 & ; 5 1 = * + $ x 2.",
"CX6X*X>XMXiX XZ.J.J.N.2.H.R.~.J.J.~.~.!.(.`./.W.F.U.).U.Z.<.,.1.Z.A.J.J.F.!._.'.^.uX=X^.~.U.J.Z.*.z f K 3 4 H I 3.` ` ` ` K : | [.oXXX XoXoXk.k.k.q.q.0.,.q.1.:.~ f p s f 0 - ; S K 5 1 > = x h ",
"MX4XL.+X<X:Xe.1.Z.H.G.:.<.R.~.!.S.W.~.~.W.J.!./.sX/./.R.L.G.Z.Z.=.C.Z.Z.A.!.(._.U.=X;X=X~.J.A.C.=.#.f K 3 4 H ` I { I ` ) K : E ;.^ | $.6.} ~ ^ } } +.[ ^ %.:.^ ~ w.B.w.#.U - ; K K L 6 6 < ! #.",
"MX#XL.L.R.G.:.*.Z.I.K.1.1.R.uX/.^.=X;X=X=X;XuXlXjXjXhXuX>X=XR.Z.-.=.A.H.f.A.A.i.Z.~.uX;XR.Z.1.=.1./ f K 5 ; H ` ` ` ) ) ` K > E ;.^ ^ ^ $.^ | } ~ Q ^ ;.O.:.O.q.w.XXXXXXw.W & 1 K K K L 5 u e.N.",
"hX+XH. X4X X:.1.s.P.P.K.H.=XuXiXhXiX6XiXuXuXjXjXjXjXhX<X*X@XJ.A.i.Z.A.A.D.i.-.&.=.R.;X;XP.G.%.%.%./ T R 5 - S I ` ) ) ) ) L : E :.^ / | ~ | ;.w.0.k.L.#X#X#X#XL.k.|.%X&XB.W - 2 K I K K A f B.P.",
"0X XZ.4XNXvXe.1.1.I.P.J.R.=XuXuXhXuX;X*X*X=X/.sXsXsX`.J.s.Z.A.A.Z.Z.i.i.s.i.i.B -.J.;X=XP.G.1.%.:.%.~ K 3 4 S ` I ` ) ) ) D : } 9.| }  .7.w.B.oXoXoX#X0X0X0XqXoXe.w.B.e.,.U - 6 K K K K A W K.&X",
",XH.1.7XNXNX Xq.,.}..XP.R.*X^.;XsX/.!.Z.M.C.D.D.).!.(.S.-.*.=.-.*.*.*.$.s.A.A.A.Z.P.+XP.P.H.1.=.,.*.^ R 3 4 S ` I ` ) ) ) D : ~ 9. .} { 9.t.[.oX}.}.k.oX XXX}.0.~ :.$.<.,.U ; ; K K L K S u e.*X",
"P.A.<..XvX9X:X].[..X1XB.Q.*X~.^.sX/.).D.=.D.D.D.D.D.).C.M.-.-.<.h.j.K.j.Y.=X^.h.Q < > < 7 f %.<.N.:./ I A 4 S ) ` I ` I ) D : } 0.~ T [ 7.9.t.0.9.~ / :.e.B.w.~ T ,.1.e.,.W & 1 K I K L S 9 e.+X",
"J.H.h.L.:X>XqX}..X1X3X[.L.XXP.U.^./.!.S.C.S.).).D.C M.M.M.Z.Z.Z.P.#X*XR.+Xs., o     .         + p %./ K 3 4 S ) I ` ` I I H > _  .T T _  .}.XXk.~ T ~ :.1.w.| ~ ;.1.G.I.e.{ ; 6 K K K L S U B.&X",
"~.+X>X#X*X+XoXr.[.3X{.[.N.K.1.Z.J.!.S.C.C.D.).).D.m.m.m.D.S.S.Z.L.L.R.H.g o   o O . . . . . .     # d K 3 4 G ) { I I I ) D : E  .d d T w.4X8X4Xr.~ ~ | ;.@.! w.w.e.K.K.K. .& 6 K K K S S U k.:X",
"=X>X>X>X+X+Xq.2.G..X[.[.,.,.2.=.Z.M.=.-.C.C V.D.V.m.V.V.D.).S.M.<.s.s.e X + + O . . O O . . . . O   X A A 4 S I I I ` I I D : } 7.g r f w.4X9X4Xr.@.| ^ X.!  .r.B.w.,.|.%X} 1 1 K K K K A S K.:X",
"U.R. XR.P.h.X.#.1.I.B.>.2.N C M.C.-.Z -.B Z V C C m.m.C V.).D.A.s.G.0 o O # # O . O @ + @ @ . . @ .   . ; 1 S I ) K I P ) S :  .0.^ Q Q r.XXXXr.|  .^ / / ! e.|.|.w.B.5XMXB.1 6 K K S K 5 L r.:X",
"S.U.+X+XH.<.g ^ G.H.s.*.*.-.V.D.C.i.N N B B c &.V C N V =.S.S.J.P.X.# q e e , + O @ + % # # # # # @ @   . 1 S I I I ( ) ) A : | 0.^ / / oX5X.X .W ~  .^ / ~ w.}.}..XaXVXGX2X6 1 K K K K 5 L r.*X",
"!.^.*XR.J.s.Q X.H.R.S.i.i.D.D.F.S.C.B N i.*.<.<.<.s.M.1.s.h.h.J.R.: Q l.j.v.O., , > $ t ..o.v y t t $ @   + S P I K ( P P S > ~ 0.+.;.>.:XcXcX Xr.r.k.e.;.T 7.r.B.5XBXGXDX5X5 6 K K K S S u r.%X",
"!.~.*X*X~.H.>.>.R.^.U.f.i.C.V.V.C.=.V n &.p.>.<.s.h.1.<.>.>.*.P.q., Y.OXOXT.v.v.j.j.j.c.E.x.f.a.a.d.t @ . O S ( K ( K ( P S > } 0.q.q.e.4XiXMXvX0XoXoXXXr.T ~ w.w.aXVXBXAX{.1 6 K K H K S 5 t.XX",
"J.~. XP.~.P.>.>.U.^.U.A.i.y.Z Z V B Z b n n m %.&.*.&.%.z z z K.:.Q T.OXeXeXeXrXyXtXtX_._.E.E.f.a.d.u.$ @ . 8 R K ( P R P S > _ 9.;.>.:.k.4XMXMX9XXXXX4X}. .^ r..XaXCXmX5Xt.4 1 K K K K A 0 q. X",
"J.Z.G.Z.R.H.$.>.S.E.U.F.y.V n v m m Z b b Z Z n n c %.c z f h G.X.>.@XwXeXtXtXrXtXtXwXn.E.E.x.z.f.a.y.t # . 8 R K K K K K S > E @.g g f | r.4X9X4Xr.}.XX|.! | K.2X5X8X5X.X7.1 2 K K S S S 9 :.L.",
"Z.*.X.1.G.e.$.*.A.F.A.i.y.M M Z Z n n b Z Z N N c j M X.h p h %.Q g.^.wXeXeXeXeXrXeXtX_._.x.x.x.f.a.u.v , @ 8 P K K K K F A = ~ ^ i f p f w..X2X.X9.w.B.r.d ! t.[.%X%X%X2X6.1 2 S K D S A 8 0.K.",
"<.l / >.s.>.+.<.A.F.i.y.V B V M n n b a a n n b a j c c j h l j Q j.T.eXrXrXrXrXeXwXwX_.T._.E.x.x.a.a.u.e + 3 P K K F F F 8 = } | u p p 7 ;.r.XX%X}.9.| ! 7 / 9.9.r.2X8X8X8.1 2 S K K D A 6 ;.k.",
"<.X.X.>.s.$.$.s.F.A.i.&.B M M Z Z a a a a a a a p a c c c l j g Q Y.@X@XrXtXyXyXyXiXyXtXrXwXn.x.x.f.a.+., # q F K D H K K A = ~ } p 7 7 7 | 0.{.%X}.t.! ~ ! | w.9.|.8XaX9Xt.6 1 S K S S A 6 0.k.",
"e.*.%.=.s.$.$.s.S.A.i.&.m n M c Z b Z a a a a p p i c c c c c s / T.p.Q J ..v.rXyXtXyXwXp.y J y M a.a.u.e $ q F H K H D D 5 = } | p < < 7 f ~ @.r.r.@.@. .| }.7X.X.XaXNXnX].1 3 K S S S A 6 w. X",
"G.<.$.i.s.>.$.<.s.i.&.c m n Z Z V b a a a p a p p s l l v l j ..X.Y.p.OXc.>.p.Y.rXrXOXg.o.o.g.g.v o.a.d.e $ 2 D D K D H G 8 = ~ | s 7 7 p f T f d ! T 9.0.@.5XaX5X%XnXBXnX[.6 1 S S S S A q w.oX",
"L.>.i.S.A.*.X.*.*.&.M n N c M V V Z a a p p p a i s l Q g g l c.l.@X@Xp.Q t v z.yXwXv.a.u.+.J o.v.a.d.d.e , o.J S S S H S 5 = ~ @.f p p < d f ~ ! d T w.}.r.5XCXnX1XaXAXBX{.6 1 S L S S A q :.}.",
"L.*.s.F.F.>.X.<.&.&.B B c c Z B V b i a p p p p i a h j g g p z.+X@XOXc.Y.g.p.c.wXT.f.a.a.g.g.o.d.E.j.d.e u.x...S H S S S 6 & } ;.g d 7 7 u f @.;.E W k.}.B.5XMXnX.XaXAXmX{.3 1 S K A 5 A 6 | h.",
"h.X.>.A.s.>.X.&.-.&.C B M M M V Z b a a a p p p p a h s p i s z.yX$XrXwXOXOXOXOXT.n.b.f.c.n.OXn.x.z.Y.a.t b.b.J A S S S S 6 = } :.T u < < u E @.} E d w.w.r.5XBXnX2X5XmXnX{.1 1 A S A A 5 6 } e.",
"H.$.O.s.A.$./ *.&.&.&.M V &.V V V k b b a i i h p i i p p e p a.OXyXiXrXwXrXrXOXn.x.f.c.c.n.OXwXT.E.z.g.v f.x.J A A A 5 S 6 = } ;.f r < u < f T E Y Y E 6.;.4XMXnX7X7X5X1X7.1 1 8 L S 8 5 : ~ ,.",
"L.>.s.H.s.X.l c X.&.M M &.&.C y.V V Z Z a x k h a p i e p p u o.E.yXiXyXiXrXwXwXwXx.b.v.wXtXrXrXwXT.x.a...u.b.D A A A A 5 2 * | ;.z d 7 u p u < 7 r d U d / %XMXnXaX2X2X[.I 1 1 8 S A A 8 6 ~ q.",
"k.>.h.U.s.X./ &.M &.-.&.C i.y.y.C B M B n n n h i i i i p p < g rXyXiXiXrXwXrXtXyXwXc.v.c.tXiXyXrXOXY.o.J b...3 8 A A 8 8 2 =  .w.g d < 7 u r 7 0 r Y Y d ! }.9X8XnXaX.Xt.I 1 1 S S 5 8 5 : Q q.",
"h.>.j.J.s.$.$.s.*.&.&.C y.i.y.y.C N m M m n m k x x x h h a p s @XtXtXrXn.rXb.b.c.b.o.b.c.n.tXyXwXOXz.v o.v.0 q A 8 5 8 5 2 > @.0.f < < 7 9 r 7 7 r Y Y Y T w.2X7X7XnX2Xt.I 1 1 5 8 8 8 3 2 E :.",
"h.$.G.U.s.*.<.j.s.&.B C y.i.i.y.N n c c c c k i i i j j k k h l >.E.@Xo.g.p...J ..y e t u.b.u.Y.Y.z.j.e f.+.& S 5 A 8 5 5 1 = @.1.%.< 0 r d r J r d Y W d f B..X2X8XnX8X{.7.& 1 8 A 8 5 3 2 E 0.",
"h.1.s.H.s.*.>.A.i.o.B -.y.i.i.y.Z k j h h j a i i i h j l k c *.*.p.T.u.u.b.n.n.c.c.c.g.u.o.o.c.j.j.p.t Q 1 1 5 5 5 5 5 5 ; > e.I.=.f < r d U d U Y Q T Y u [.1X{.5XnXnX3X7.1 & 5 8 5 5 3 : E 0.",
"J.1.=.Z.s.X.X.i.i.&.i.i.y.-.B c k a h h h h a a i s h s h j M <.$.o.T.eXz.v v.@XrXOXY.v.o...E.tXu.j.O., & % 3 3 3 3 5 5 5 4 : 1.J.M.h < 9 r r d T T T Y d d t.[.{.XXaXnX1X7.1 1 5 8 5 5 2 ; E ;.",
"P.1.N d.s.X.l &.i.i.s.i.y.B B N Z k i x x k k a i p h s s h $.=.%.v s.tXtXT.b.b.c.c.b.u.b.n.tXY.X.a.g 6 1 & 3 A 3 A 3 3 5 4 = :.e.%.p q 0 7 7 J Y T Y Y Y d ~ 7.6.B.5X3X{.4.& & 5 5 5 3 2 : E 0.",
"P.N.c B s.X.l C C d.i.i.C B M V V Z h i a a x i i i k j x z %.X.g g +.@XyXyXyXtXOXOXwXwXwXeXwXg.O.v , 0 4 & 1 3 3 3 3 3 5 4 & @.;.f < < 7 9 0 r d d U Y Y Y f W L @.B.{.8.K 1 & 3 5 3 3 1 ; E 0.",
"*XH.B i.s.+.&.A.C.N c M M B %.N V k h h h x s p x b %.m / z l h f f e p.eXrXrXOXl.g.c.OXwXwXz.p.+.e t S 1 & 1 1 3 3 3 3 5 4 = @.0.r 7 7 r r U r 9 J r Y T f U u L  .8.4.I K & & 2 3 3 2 3 - E ;.",
"*XH.Z.A.s.$.>.i.-.c c n m m c n Z a a j l s s h %.%.-.2.%.j h / X.X.c X.l.yXrX$X$XOXv.x._.z.o...e t v w = = 1 A 3 3 3 2 6 - -  .0.f 7 7 U Y E W r 9 d Y f Y U u L ! I K K 5 & & 3 3 3 3 1 - U ! ",
" XP.L.U.s.X.%.s.-.*.-.&.&.%.&.&.V V M %.%.%.$.%.2.2.2.m %.z X.*.s.<.*.h.g j.OXT.$XOXg.g.j...t e t g.y     X + = 2 3 2 2 2 & =  . .7 < r r T R U u 9 Y d d d d d I L L u 5 6 & & 1 2 2 1 2 * 0 u ",
"L.L.Y.U.A.X./ &.R.<X,X&X X:X9XiXhX,XH.1.N.I. X|.N.2.m m z / / *.s.s.X.T.l.r o.O.u.O...o.g , $ v j.a.v           % 2 2 2 2 ; = _ _ < 0 7 r U U 9 9 9 r d d d f W ! u L u 5 5 & & 2 3 3 1 1 = 0 u ",
"1.h.h.P.L.<.X.s.hXVXVXMX9XCXDXFXDXVX<XG.M. X:X:XI.%.h h i s l $.<.+.# s.rXp.t , , e e , , e o.j.v.a.v #         X + 1 - 2 1 + _ } < , r r 7 0 9 7 9 r 9 7 u u u ! u u u u 5 1 & 1 3 1 3 1 % 0 u ",
">.*.s.U.+Xh.X.H.VXDXDXGXCXVXFXFXFXDX5XN.,.B.XX%XB.2.z x i p z $./ +   O.eXrXR.p.O.......>.g.z.Y.f.a.u.t ,     O X X O O % & % [  .0 < < 0 < 7 < 7 9 d r 7 7 7 u u u u ; 6 6 & & ; 1 1 1 1 & u f ",
"Z.Z.U.;XuXR.%.H.CXDXDXDXVXGXFXFXFXDX,X#.#.8.r.[.e.;.%.M M m %.1.= o   ..eX@XeX$X>XOXOXT.z.j.z.Y.E.f.u.t +.J o   X + % + + + = }  .d d d r 9 r d r Y Q Y d u u d u u u 6 6 6 & & ; 1 6 1 ; & u W ",
"S.A.~.uXuX+Xc 1.hXSXDXDXDXDXFXFXFXVXI.z #.} @.9.;.#.%.C.S.x 0 f + +   t eX=X@X@XrX$X$XOXY.z.Y.T.E.f.a.t O.] X - 5 : = - 4 > > [ ;.g z f Y Y E T E E E T U U W W u u ; ; 6 6 & & 1 1 1 1 ; & L ! ",
"A.J.^.;X>XH.h 2.>XCXGXDXDXDXFXFXFXaXN.#.#.| @.@.~ #.=.U.%.O X X O O @ >.T.@X$XeX$XrXOX+XY.E.E.E.E.E.d.t Q 2 A J - 2 8 D J D q E ;.s f f d T ~ | } } E W U U W W u u > u 6 6 * & 1 1 1 1 ; & I ! ",
"H.U.R.R.+Xq.z *.:XMXVXDXDXZXGXDXCXI.N.M.#.,.#.8.,.G.!.1.% & % + O X # u.c.@X$X>X$X$XOX$X@X@XT.T.E.f.v , A J A 4 A J J J 2 - q _ | s f f f ! | @.;.| ! W L U W K u u 6 6 ; 6 & & 1 1 1 1 1 1 L I ",
"G.P.U.R.+XG.^ e.5XBXGXDXGXVXaXpXQ.M.I.D.M.N.,.N.I.I.d * X X % + + O X Q j.Y.@XrXyXyXyXyXrX@XeXwXx.v < U J J A J J D - w q : q _  .Y d ! | @.@.w.,.w.@.} I ! ! ! L u 6 6 ; 6 & & 1 1 1 1 1 & S L ",
"w.q.,.K.#XL.w.K.nXGXGXGXCXaX-XQ.Q.Q.W.(.).I.M.I.P.0 % % % % + X X X X % +.Y.@XeXrXyXyXrXeXeXeXY.g D ( ] J J J A 4 % 2 - : 8 q q 9 T ~  .7.@.,.,.w.e.9.@.{ !  .! L u ; ; ; 6 & & 1 1 1 1 1 & L I ",
"q.0.@.e. X}.e.K.mXDXDXmX5X,X(.pXpX`.pX(.W.W.Q.`.Q.H & % % % % X + + + X X r Y.rXrX>XrXeXrXrXj.Y J 2 J ] J A 4 4 J 4 - J A 4 4 D 8 q L @.9.9.;.:.,.w.,.@.#.{ @. .! u ; ; ; 6 & & 1 1 1 6 1 1 #.N.",
"e.:.;.q.oXk.r.oXvXDXVX8XXX&X,X<XpXpX<X-X-X-X-Xe.W 3 3 3 A A % + % + O O o X q T.rXrXrXrXtXl.J ' ] & q A 2 8 D G J D 2 - 8 J 8 - q J q q [ 0.;.^ ^ ;.;.;.#. .#.{ 8.x x x ! S & & 1 1 1 6 1 5 8.{.",
"k.w.;.;.e.k.q.}.xXAXvX.Xr.|.*X-X<XaXaXpX-XB._ 3 3 H H J H H H A 3 A 4 & 4 : % q j.@XOXrXl.D R 8 8 A A J R ( J F F J F H - : J J 2 4 J J q J 6.;.6.;.0.0.8.N.N.N.8.8.M.M.M.I 1 & 1 5 6 1 1 A {.%X",
"G.N.,.@.0.q.q.r.cXNX9X].9.B.|.&X,XpXaX:X .G S F ] F H F H 3.3.P H J 3.F J F F A J +.J y [ F D F J ' [ ' ) R ( K F F ( ( J G - q J J 4 J _ q J 6.r.[.}.{.B.{.&XB.M.M.M.).M.#.& 1 5 5 1 5 1 K {.5X",
"K.G.N.,.[ 0.l.[.cXNXcXr.@.@.B.&X,XaX*X` R ) ( K P J F F 3.3.3.3.J ` 3.3.3.J ] 3.( H 3 D 4.[ ' 3.3.[ ' ] ) ( ( ( J J F F J J J q : J J q r ] 8 J 5. X%X%X%X%X-X&XQ.Q.M.).I.#.1 & 1 5 5 1 1 K {.2X",
"P.K.G.,.} ;.p.k.7XmXxX].7.9.r.|.%X:Xt.I 5.] ( F ] H H F 3.3.3.3.3.` ` ] 3.F ] ` ' F - ] 5.[ ' ' 3.3.' ' ' ) ( ( ( F J F J J 3.J A 4 J [ 8 8 J q 9 5.&X5X,X%X%X&XQ.Q.Q.Q.`.M.& & 5 5 1 5 6 I {.5X",
"&XL.k.:.E +.>.0..X7X.Xt.t.t.].}.XXoX5.' ' ] F F ] H H P ] 3.3.3.3.` ` 3.3.( 3.] 3.3 2 ' 5.5.5.5.5.5.3.' ] ] ] ( ] ( F F ` 3.3.3.] J - A [ J J J 0 ] 6.6XaX6X,XpXQ.`.Q.`.B.M.& 1 5 5 5 5 6 I %XaX",
":XL.e.| ~ ;.q.q.t.].].7.7.0.t.B.}.r.5.4.' ( F F H F F J F 3.3.3.] ] ] 3.` ( ] ] ` - 2 ' ' ' 3.3.4.4.[ ' ' ' ' ( ] ) H F ( ] 3.5.3.] J 4 r 3.A J R D _ oXhXhXhXdXpX`.`.`.Q.M.1 1 5 5 1 6 1 I ,XaX",
"uX:Xr.X.+.q.k.k.t.t.7.6.5. .6.t.r.t.4.5.' ` F F F F A F F F H ] ] H ] ` P ] F J ] % q ' ` ' 3.3.' ' ' 5.' ' ` ( ( ( F H J ] 3.5.5.' ' ' 2 J 6.J _ 8 ] ;.hXkXkXpXpXaX-X-X&X{.I I 4.I I I L { ,XaX",
"iX>X}.O.+.q.k.K.k.r.t.5. .{  .6.0.6.5.3.3.4.F S A H H H 3.H F ` ] ` ] ] H F 3.( F + A ] ( ' ] ) ' ' ' ' ] ` ] ` ( F D J ] 3.] 5.6.3.] 5.J A [ J R R _ ' &XkXkXfXaXnXxXxXbXbX3XbXbX3X3X3X[.bX7XnX",
"+X+Xk.:.;.q.l.k.K.r.t.6. .} E _ 6.6.3.3.3.' F A G A H H ( ] F ] ] ` 3.F F ] ] ] F % F ] ] ] ] ( ) ' ' ' 3.] 3.] ( J D J ( J 3.5.6.] ] ` 3.G A [ J [ J { N.kXaXaXaX8XxXxXxXmXxXxXxXxXxXxXxXxXxXxX",
"1.e.>.;.>.q.q.e.e.w.t.0.8.} W W  .5.] 4.' ] R A A G H H P H 3.F ] J 3.3.F F ] ] H O J ] 3.] ) ( ( ] ' 3.] ] ` P F J H A F ( ) 3.5.' ] J 3.] q [ D [ K { I ,XkXdXpX5XbXxXxXmXmXmXmXmXmXmXmXmXvXvX",
",.:.} ;.l.q.q.L.L.k.r.r.B.N.,.M.9.5.( ] ) F ( 8 A H H H 3.( F J 3.3.J 3.] P P 3.A % ] ] ] ' ) ( R ] 3.` ] ` ] ( ( J D A F P ] ' 3.3.J H 3.[ A ' J _ I I I B.kXdXpX3X8X8XxXmXmXmXNXNXmXmXmXmXmXmX",
":.X.T ! q.G.I.~.=X^./.-XpX(.`.`.6.3.4.F J H H G A H H J 3.H H ( ' ' ' ' P ` ( 3.A % J ] ' ' ` ] R _ ' ] 3.3.] ] ] J J q F F ] ` 3.[ G G 3.5.A J ( D 5.J 5. .pXdXpX2X3X8XxXxXmXNXmXAXAXBXAXmXBXBX",
"#.2.%.1.I./.pXsXdXdXdXdXfXfXfXsX6.] 5.A H J F H A H F F ] H F ( [ ' ' ] J ] ` ] q w ] ] ' ' 3.' R ( ] ' F F ] ] ( F D A 8 J ] ` 3.[ 8 G [ 3.A D [ 8 [ A 5.{ Q.dXaX5X5X3XxXxXmXNXBXAXAXAXAXAXAXBX",
"(.).`.sXdXdXfXkXkXgXgXlXlXlXzX'.6.] 5.H A H J H H J H J 3.H F ) ` ' 3.] F ( ] 3.2 - 4.] ] ] 5.3.J D 2 ( 4 A 3.( ] ] J H 3 G J 3.3.] 2 J 5.[ D A 3.A [ J I { N.dXpX2X2X5X8XxXnXmXBXAXAXAXAXAXBXBX",
"zXfXzXzXgXlXlXlXlXlXgXgXlXlXgXsX5.J 3.F A 4 3.H H H H 3.3.J F ] ' ' 5.3.J ] 3.` 4 - 5.3.] J 5.3.] J 2 q & A A A F 3.] J 8 q J ` 3.J 3 ' 5.3.D 3 5.A J J I { { pXaX2X2X5X3X8XxXnXmXmXBXAXAXAXVXVX"
};
