/* XPM */
static char *_651857867536[] = {
/* columns rows colors chars-per-pixel */
"35 50 192 2 ",
"   c black",
".  c gray2",
"X  c gray4",
"o  c #090909",
"O  c gray3",
"+  c #060606",
"@  c #010101",
"#  c #020202",
"$  c #0B0B0B",
"%  c #1E1E1E",
"&  c #2D2D2D",
"*  c gray21",
"=  c #353535",
"-  c #272727",
";  c gray1",
":  c gray12",
">  c #343434",
",  c #373737",
"<  c gray18",
"1  c #0C0C0C",
"2  c #232323",
"3  c gray23",
"4  c #3A3A3A",
"5  c gray20",
"6  c gray16",
"7  c #3C3B3B",
"8  c #252525",
"9  c #0E0E0E",
"0  c gray19",
"q  c #323232",
"w  c #030504",
"e  c #272828",
"r  c #3B3C3C",
"t  c #101010",
"y  c #3A3736",
"u  c #3C2324",
"i  c #3E1214",
"p  c #341F1E",
"a  c #393B3A",
"s  c #070707",
"d  c #2F2F2F",
"f  c #393A39",
"g  c #472628",
"h  c #9E2628",
"j  c #C82628",
"k  c #A12624",
"l  c #4C2523",
"z  c #383739",
"x  c #313131",
"c  c gray13",
"v  c #3C3C3C",
"b  c #373535",
"n  c #7D2426",
"m  c #DA2020",
"M  c #E11E1D",
"N  c #DF1F20",
"B  c #8D2726",
"V  c #3A3434",
"C  c #3A3B3B",
"Z  c gray15",
"A  c gray5",
"S  c #3C3737",
"D  c #972728",
"F  c #DF1F1D",
"G  c #E31D1E",
"H  c #E51E1F",
"J  c #A92527",
"K  c #3D3333",
"L  c gray22",
"P  c #1D1D1D",
"I  c #3D3738",
"U  c #9A272A",
"Y  c #DD1F1F",
"T  c #E31D1D",
"R  c #E31F1E",
"E  c #AA2427",
"W  c #3E3232",
"Q  c #040404",
"!  c #2C2C2C",
"~  c #3D3838",
"^  c #992928",
"/  c #DE1F1F",
"(  c #E31D1F",
")  c #DF1F1E",
"_  c #A72525",
"`  c #3A3C3B",
"'  c #3C3838",
"]  c #992929",
"[  c #DF1E1F",
"{  c #E11D1F",
"}  c #E11F1E",
"|  c #A92526",
" . c #3D3233",
".. c #393C3B",
"X. c #A92626",
"o. c #393939",
"O. c gray7",
"+. c gray6",
"@. c #982829",
"#. c #DF1E1E",
"$. c #E11D1E",
"%. c #E11F1D",
"&. c #151515",
"*. c #393A3A",
"=. c #3B3737",
"-. c #982828",
";. c #E01D1E",
":. c #161616",
">. c #3A393A",
",. c #464646",
"<. c #3F3B3B",
"1. c #992828",
"2. c #E21E1D",
"3. c #A92425",
"4. c #3C3132",
"5. c #393B3B",
"6. c #3E3E3E",
"7. c #3F3F3F",
"8. c #414141",
"9. c #565656",
"0. c #413D3D",
"q. c #8E2F2F",
"w. c #D72926",
"e. c #DA2124",
"r. c #D62827",
"t. c #9D2B2D",
"y. c #3D3537",
"u. c #3F403F",
"i. c gray30",
"p. c gray31",
"a. c #4B4B4B",
"s. c #555555",
"d. c #414041",
"f. c #593736",
"g. c #CE5B55",
"h. c #D54144",
"j. c #C0595C",
"k. c #673938",
"l. c #444140",
"z. c #505050",
"x. c #494949",
"c. c gray29",
"v. c gray34",
"b. c #342F32",
"n. c #663A38",
"m. c #8A3F41",
"M. c #653A41",
"N. c #3A3134",
"B. c #494948",
"V. c gray32",
"C. c #484848",
"Z. c gray24",
"A. c #535353",
"S. c gray35",
"D. c #484748",
"F. c #504E50",
"G. c #2C2929",
"H. c #090704",
"J. c #1F201D",
"K. c #4B494C",
"L. c #4B4C4D",
"P. c #4C4C4C",
"I. c gray8",
"U. c #1B1B1B",
"Y. c #222222",
"T. c gray14",
"R. c #282828",
"E. c gray17",
"W. c #2A2B2B",
"Q. c #161515",
"!. c #000101",
"~. c #100E0F",
"^. c #262424",
"/. c #262828",
"(. c #2A2A2A",
"). c #131313",
"_. c #262627",
"`. c #262625",
"'. c #282729",
"]. c #272325",
"[. c #252423",
"{. c #272928",
"}. c gray25",
"|. c #3C3D3D",
" X c gray27",
".X c gray26",
"XX c #434343",
"oX c #202020",
"OX c #111111",
"+X c gray9",
"@X c #181818",
"#X c white",
/* pixels */
"                      . X o O o + @ . o o o o .                       ",
"              @ # $ % & * * = * - ; : * > * , < : 1 #                 ",
"              O 2 = 3 3 3 4 4 3 5 + 6 7 4 4 3 3 3 , 8 X @             ",
"        @ @ 9 0 3 4 4 4 4 4 4 3 q w e r 4 4 4 4 4 3 3 q t             ",
"          9 5 3 4 4 4 4 4 4 4 y u i p = a 4 4 4 4 4 4 3 > t           ",
"        s d 3 4 4 4 4 4 4 4 f g h j k l z 4 4 4 4 4 4 4 3 x $         ",
"        c v 4 4 4 4 4 4 4 3 b n m M N B V C 4 4 4 4 4 4 4 3 Z #       ",
"      A * 4 4 4 4 4 4 4 4 C S D F G H J K 3 4 4 4 4 4 4 4 4 L t   @   ",
"      P v 4 4 4 4 4 4 4 4 C I U Y T R E W 3 4 4 4 4 4 4 4 4 3 c @ @   ",
"    Q ! 3 4 4 4 4 4 4 4 4 4 ~ ^ / ( ) _ W ` 4 4 4 4 4 4 4 4 3 x +     ",
"    O * 3 4 4 4 4 4 4 4 4 C ' ] [ { } |  ...4 4 4 4 4 4 4 4 4 * $     ",
"    1 = 4 4 4 4 4 4 4 4 4 C ' ] [ { } X.K ..4 4 4 4 4 4 4 4 4 o.O.    ",
"    +., 4 4 4 4 4 4 4 4 4 C ' @.#.$.%.X.K ..4 4 4 4 4 4 4 4 4 3 &.    ",
"    9 * 4 4 4 4 4 4 4 4 4 *.=.-.#.;.%.|  ...4 4 4 4 4 4 4 4 4 3 :.    ",
"    9 * 4 4 4 4 4 4 >.4 v ,.<.1.#.$.2.3.4.5.4 4 4 4 4 4 4 4 4 3 :.    ",
"    +.* 4 4 4 4 4 4 6.7.8.9.0.q.w.e.r.t.y.u.v v v 4 4 4 4 4 4 3 :.    ",
"    +.* 4 4 4 4 4 6.i.p.a.s.d.f.g.h.j.k.l.z.i.,.x.6.4 4 4 4 4 3 :.    ",
"    +.* 4 4 4 4 4 6.c.z.v.s.a.b.n.m.M.N.B.z.V.C.a.7.4 4 4 4 4 3 :.    ",
"    9 * 3 3 3 3 4 Z.a.A.S.A.D.F.G.H.J.K.L.p.A.C.P.7.4 4 4 4 3 3 I.@   ",
"    . U.Y.Y.Y.Y.Y.T.R.R.E.6 - W.Q.!.~.^./.R.(.- - 2 Y.Y.Y.Y.Y.P + @   ",
"    # ).Z - - R.R.R.Z Z - Z Z _.`.'.].[.{.8 8 Z - - - - - - Z :.# @   ",
"    $ > v v v v v Z.8.}.7.6.7.8.7.6.|.Z.6.Z. Xz.V..Xv v v v v , 9 @   ",
"    t * 4 4 4 4 4 4 4 4 4 4 4 o.4 4 4 4 4 4 XXi.a.6.4 4 4 4 4 3 :.    ",
"    +.* 4 4 4 4 4 4 4 4 4 4 4 4 4 4 4 4 4 4 4 3 3 4 4 4 4 4 4 3 &.    ",
"    +.* 4 4 4 4 4 4 4 4 4 4 4 4 4 4 4 4 4 4 4 4 4 4 4 4 4 4 4 3 &.    ",
"    +.* 4 4 4 4 4 4 4 4 4 4 4 4 4 4 4 4 4 4 4 4 4 4 4 4 4 4 4 3 &.    ",
"    9 * 4 4 4 4 4 4 4 4 4 4 4 4 4 4 4 4 4 4 4 4 4 4 4 4 4 4 4 3 &.    ",
"    9 * 4 4 4 4 4 4 4 4 4 4 4 4 4 4 4 4 4 4 4 4 4 4 4 4 4 4 4 3 &.    ",
"    9 * 4 4 4 4 4 4 4 4 4 4 4 4 4 4 4 4 4 4 4 4 4 4 4 4 4 4 4 3 &.    ",
"    9 * 4 4 4 4 4 4 4 4 4 4 4 4 4 4 4 4 4 4 4 4 4 4 4 4 4 4 4 3 &.    ",
"    9 * 4 4 4 4 4 4 4 4 4 4 4 4 4 4 4 4 4 4 4 4 4 4 4 4 4 4 4 3 &.    ",
"    9 * 4 4 4 4 4 4 4 4 4 4 4 4 4 4 4 4 4 4 4 4 4 4 4 4 4 4 4 3 &.    ",
"    9 * 4 4 4 4 4 4 4 4 4 4 4 4 4 4 4 4 4 4 4 4 4 4 4 4 4 4 4 3 &.    ",
"    9 * 4 4 4 4 4 4 4 4 4 4 4 4 4 4 4 4 4 4 4 4 4 4 4 4 4 4 4 3 &.    ",
"    9 * 4 4 4 4 4 4 4 4 4 4 4 4 4 4 4 4 4 4 4 4 4 4 4 4 4 4 4 3 &.    ",
"    $ = 3 4 4 4 4 4 4 4 4 4 4 4 4 4 4 4 4 4 4 4 4 4 4 4 4 4 4 o.O.    ",
"    O = 3 4 4 4 4 4 4 4 4 4 4 4 4 4 4 4 4 4 4 4 4 4 4 4 4 4 4 * $     ",
"    Q < v 4 4 4 4 4 4 4 4 4 4 4 4 4 4 4 4 4 4 4 4 4 4 4 4 4 4 q +     ",
"      oXv 4 4 4 4 4 4 4 4 4 4 4 4 4 4 4 4 4 4 4 4 4 4 4 4 4 3 Z @ @   ",
"      OXo.4 4 4 4 4 4 4 4 4 4 4 4 4 4 4 4 4 4 4 4 4 4 4 4 4 4 &.  @   ",
"      . E.3 4 4 4 4 4 4 4 4 4 4 4 4 4 4 4 4 4 4 4 4 4 4 4 3 0 +       ",
"    @ @ I.o.4 4 4 4 4 4 4 4 4 4 4 4 4 4 4 4 4 4 4 4 4 4 4 4 +X        ",
"        ; T.3 4 4 4 4 4 4 4 4 4 4 4 4 4 4 4 4 4 4 4 4 4 3 Z Q         ",
"          s ! 3 4 4 4 4 4 4 4 4 4 4 4 4 4 4 4 4 4 4 4 3 0 X @         ",
"        @   o & 3 4 4 4 4 4 4 4 4 4 4 4 4 4 4 4 4 4 3 0 1 @ @         ",
"              O Z 4 3 4 4 4 o.4 4 4 4 4 4 4 4 4 3 4 R.X               ",
"                Q :.d 3 v 3 4 4 4 4 4 4 4 4 3 4 x @X. # @             ",
"              @     + &.Z 5 * 4 3 3 3 4 * 5 Z &.s     @               ",
"                        @ s 1 ).&.:.&.).1 s #                         ",
"                            @             @ @                         "
};
