/* XPM */
static char *a2V5X3Vw[] = {
/* columns rows colors chars-per-pixel */
"103 50 256 2 ",
"   c black",
".  c #010101",
"X  c #020202",
"o  c gray1",
"O  c #040404",
"+  c gray2",
"@  c #060606",
"#  c #070707",
"$  c gray3",
"%  c #090909",
"&  c gray4",
"*  c #0B0B0B",
"=  c #0C0C0C",
"-  c gray5",
";  c #0E0E0E",
":  c gray6",
">  c #101010",
",  c #111111",
"<  c gray7",
"1  c #131313",
"2  c gray8",
"3  c #151515",
"4  c #161616",
"5  c gray9",
"6  c #181818",
"7  c #191919",
"8  c gray10",
"9  c #1B1B1B",
"0  c gray11",
"q  c #1D1D1D",
"w  c #1E1E1E",
"e  c gray12",
"r  c #202020",
"t  c gray13",
"y  c #222222",
"u  c #232323",
"i  c gray14",
"p  c #252525",
"a  c gray15",
"s  c #272727",
"d  c #282828",
"f  c gray16",
"g  c #2A2A2A",
"h  c gray17",
"j  c #2C2C2C",
"k  c #2D2D2D",
"l  c gray18",
"z  c #2F2F2F",
"x  c gray19",
"c  c #313131",
"v  c #323232",
"b  c gray20",
"n  c #343434",
"m  c #353535",
"M  c gray21",
"N  c #373737",
"B  c gray22",
"V  c #393939",
"C  c #3A3A3A",
"Z  c gray23",
"A  c #3C3C3C",
"S  c gray24",
"D  c #3E3E3E",
"F  c #3F3F3F",
"G  c gray25",
"H  c #414141",
"J  c gray26",
"K  c #434343",
"L  c #444444",
"P  c gray27",
"I  c #464646",
"U  c gray28",
"Y  c #484848",
"T  c #494949",
"R  c gray29",
"E  c #4B4B4B",
"W  c #4C4C4C",
"Q  c gray30",
"!  c #4E4E4E",
"~  c gray31",
"^  c #505050",
"/  c #515151",
"(  c gray32",
")  c #535353",
"_  c gray33",
"`  c #555555",
"'  c #565656",
"]  c gray34",
"[  c #585858",
"{  c gray35",
"}  c #5A5A5A",
"|  c #5B5B5B",
" . c gray36",
".. c #5D5D5D",
"X. c gray37",
"o. c #5F5F5F",
"O. c #606060",
"+. c gray38",
"@. c #626262",
"#. c gray39",
"$. c #646464",
"%. c #656565",
"&. c gray40",
"*. c #676767",
"=. c #686868",
"-. c DimGray",
";. c #6A6A6A",
":. c gray42",
">. c #6C6C6C",
",. c #6D6D6D",
"<. c gray43",
"1. c #6F6F6F",
"2. c gray44",
"3. c #717171",
"4. c #727272",
"5. c gray45",
"6. c #747474",
"7. c gray46",
"8. c #767676",
"9. c #777777",
"0. c gray47",
"q. c #797979",
"w. c gray48",
"e. c #7B7B7B",
"r. c #7C7C7C",
"t. c gray49",
"y. c #7E7E7E",
"u. c gray50",
"i. c #808080",
"p. c #818181",
"a. c gray51",
"s. c #838383",
"d. c #848484",
"f. c gray52",
"g. c #868686",
"h. c gray53",
"j. c #888888",
"k. c #898989",
"l. c gray54",
"z. c #8B8B8B",
"x. c gray55",
"c. c #8D8D8D",
"v. c #8E8E8E",
"b. c gray56",
"n. c #909090",
"m. c gray57",
"M. c #929292",
"N. c #939393",
"B. c gray58",
"V. c #959595",
"C. c gray59",
"Z. c #979797",
"A. c #989898",
"S. c gray60",
"D. c #9A9A9A",
"F. c #9B9B9B",
"G. c gray61",
"H. c #9D9D9D",
"J. c gray62",
"K. c #9F9F9F",
"L. c #A0A0A0",
"P. c gray63",
"I. c #A2A2A2",
"U. c gray64",
"Y. c #A4A4A4",
"T. c #A5A5A5",
"R. c gray65",
"E. c #A7A7A7",
"W. c gray66",
"Q. c #A9A9A9",
"!. c #AAAAAA",
"~. c gray67",
"^. c #ACACAC",
"/. c gray68",
"(. c #AEAEAE",
"). c #AFAFAF",
"_. c gray69",
"`. c #B1B1B1",
"'. c #B2B2B2",
"]. c gray70",
"[. c #B4B4B4",
"{. c gray71",
"}. c #B6B6B6",
"|. c #B7B7B7",
" X c gray72",
".X c #B9B9B9",
"XX c gray73",
"oX c #BBBBBB",
"OX c #BCBCBC",
"+X c gray74",
"@X c gray",
"#X c gray75",
"$X c #C0C0C0",
"%X c #C1C1C1",
"&X c gray76",
"*X c #C3C3C3",
"=X c gray77",
"-X c #C5C5C5",
";X c #C6C6C6",
":X c gray78",
">X c #C8C8C8",
",X c gray79",
"<X c #CACACA",
"1X c #CBCBCB",
"2X c gray80",
"3X c #CDCDCD",
"4X c #CECECE",
"5X c gray81",
"6X c #D0D0D0",
"7X c gray82",
"8X c #D2D2D2",
"9X c LightGray",
"0X c gray83",
"qX c #D5D5D5",
"wX c gray84",
"eX c #D7D7D7",
"rX c #D8D8D8",
"tX c gray85",
"yX c #DADADA",
"uX c gray86",
"iX c gainsboro",
"pX c #DDDDDD",
"aX c gray87",
"sX c #DFDFDF",
"dX c gray88",
"fX c #E1E1E1",
"gX c #E2E2E2",
"hX c gray89",
"jX c #E4E4E4",
"kX c gray90",
"lX c #E6E6E6",
"zX c #E7E7E7",
"xX c gray91",
"cX c #E9E9E9",
"vX c #EAEAEA",
"bX c gray92",
"nX c #ECECEC",
"mX c gray93",
"MX c #EEEEEE",
"NX c #EFEFEF",
"BX c gray94",
"VX c #F1F1F1",
"CX c gray95",
"ZX c #F3F3F3",
"AX c #F4F4F4",
"SX c gray96",
"DX c #F6F6F6",
"FX c gray97",
"GX c #F8F8F8",
"HX c #F9F9F9",
"JX c gray98",
"KX c #FBFBFB",
"LX c gray99",
"PX c #FDFDFD",
"IX c #FEFEFE",
"UX c white",
/* pixels */
"6 6 w 8 2 4 w 0 3 8 7 6 6 6 6 6 6 6 6 7 7 7 7 7 7 7 7 7 7 7 7 7 7 7 7 7 7 7 7 7 7 7 7 7 7 7 7 7 7 7 7 7 7 7 7 7 7 7 7 7 7 7 7 7 7 7 7 7 7 7 7 7 7 7 7 7 7 7 7 7 7 7 7 6 6 6 6 6 6 6 6 7 7 1 9 q 8 7 5 8 q 7 7 ",
"3 , 6 0 8 5 6 8 0 q q q q q q q q q q q q q q q q q q q q q q q q q q q q q q q q q q q q q q q q q q q q q q q q q q q q q q q q q q q q q q q q q q q q q q q q q q q q q q q q q q e e 4 5 5 6 0 8 6 9 7 7 ",
"4 7 6 6 9 q i n J L R W W W W W W W W ~ ^ ^ ^ ^ ^ ^ ^ ^ ^ ^ ^ ^ ^ ^ ^ ^ ^ ^ ^ ^ ^ ^ ^ ^ ^ ^ ^ ^ ^ ^ ^ ^ ^ ^ ^ ^ ^ ^ ^ ^ ^ ^ ^ ^ ^ ^ ^ ^ ^ ^ ^ ^ ^ ^ ^ ^ ^ ^ ^ ^ ^ ^ ! W W W W W W W W Y D b g q 7 9 6 4 7 7 7 ",
"9 q 6 9 g S Q } +.o.o.O.O.O.O.O.O.O.O.+.+.+.+.+.+.+.+.+.+.+.+.+.+.+.+.+.+.+.+.+.+.+.+.+.+.+.+.+.+.+.+.+.+.+.+.+.+.+.+.+.+.+.+.+.+.+.+.+.+.+.+.+.+.+.+.+.+.+.+.+.+.+.+.O.O.O.O.O.O.O.O.X.| ] E N d w 4 4 8 7 7 ",
"e 7 r c U X.:.*.o.X.O.O.O.O.O.O.O.O.O.o.o.o.o.o.o.o.o.o.o.o.o.o.o.o.o.o.o.o.o.o.o.o.o.o.o.o.o.o.o.o.o.o.o.o.o.o.o.o.o.o.o.o.o.o.o.o.o.o.o.o.o.o.o.o.o.o.o.o.o.o.o.o.o.O.O.O.O.O.O.O.O.o.o.#.O.` P x e 7 8 7 7 ",
"7 0 N ^  .$.-.O.] ..O.+.+.+.+.+.+.+.+.+.+.+.+.+.+.+.+.+.+.+.+.+.+.+.+.+.+.+.+.+.+.+.+.+.+.+.+.+.+.+.+.+.+.+.+.+.+.+.+.+.+.+.+.+.+.+.+.+.+.+.+.+.+.+.+.+.+.+.+.+.+.+.+.+.+.+.+.+.+.+.+.o.| ..O.&.o.R b r 5 7 7 ",
"3 z ( #.o.{ X.o. .@...| | | | | | | |  ............................................................................................................................. .| | | | | | | | X.#.| } %.*. .R k 5 7 7 ",
"t T ..@.o...X.| / E W Q Q Q Q Q Q Q Q E E E E E E E E E E E E E E E E E E E E E E E E E E E E E E E E E E E E E E E E E E E E E E E E E E E E E E E E E E E E E E E E Q Q Q Q Q Q Q W ^ ] ` { @.o.o.| H r 7 7 ",
"Z +.O.} X. .! S c a g j j j j j j j j j j j j j j j j j j j j j j j j j j j j h h j j h h j h j j h h j j h h h h j j j h j j j j j j j j j j j j j j j j j j j j j j j j j j j j j j h z G _ +.{ ..*.[ z 7 7 ",
"..+.o. .X.( b a z s f g g g g g g g g g g g g g g g g g g g g g g g g g g k h a a g j d a h p j b p d k k s d s a f l g s k h f f g g g g g g g g g g g g g g g g g g g g g g g g g g f f j M | +.{ +.%.U q 7 ",
"#.o.O.X.{ U j p l d f g g g g g g g g g g g g g g g g g g g g g g g g g g a s h h h k j f h x d j ( #.s w c g s h g h f g l h p a g g g g g g g g g g g g g g g g g g g g g g g g g g g g h j E O.O.+.$.W e 8 ",
"#.X.+.+.( V f f k d f g g g g g g g g g g g g g g g g g g g g g g g g g g a h x h p d g d a a x @.'.&X#.h a h j h f d h k f f z l g g g g g g g g g g g g g g g g g g g g g g g g g g f d l f B | *.+.O.^ t 8 ",
"@...O.@.E l d k h f g g g g g g g g g g g g g g g g g g g g g g g g g g g g l l d a k k d d c -.@XZXHX;X;.h s j d s a j c a a k k g g g g g g g g g g g g g g g g g g g g g g g g g g d s l g l _ &...X.' i 8 ",
"+.X.o.@.Y g g l s h g g g g g g g g g g g g g g g g g g g g g g g g g g g j j f d k x s a n :.@XFXUXUXLX}.$.x i g l h s k f h f d g g g g g g g g g g g g g g g g g g g g g g g g g g f d g j k / #.| X.[ a 8 ",
"+.O.X.O.Y h k k a j h g g g g g g g g g g g g g g g g g g g g g g g g g g l h a g z s q n %.+XDXKXJXKXHXzX#X=.z f v v p f f c k f g g g g g g g g g g g g g g g g g g g g g g g g g g j j i h z ( #...X.` d 7 ",
"O.+.X.O.T l l j s j h g g g g g g g g g g g g g g g g g g g g g g g g g g l g p f h i c 6.1XFXUXKXZXAXUXUXJX;X;.f u k g x d a i a g g g g g g g g g g g g g g g g g g g g g g g g g g k z y d l _ %.+.X./ f 5 ",
"X.O.o.@.R l k f h g g g g g g g g g g g g g g g g g g g g g g g g g g g g g a p h k c [ W.hXbXlXVXLXSXAXMXhXhX).{ a p u z k j l k g g g g g g g g g g g g g g g g g g g g g g g g g g j k d f f _ &.#.O.^ g 5 ",
"X.o.O.#.R k h f z d f g g g g g g g g g g g g g g g g g g g g g g g g g g h f h k f s G | | | } N.KXfXq.] o.+. .D i m f g g f g g g g g g g g g g g g g g g g g g g g g g g g g g g g d d z k s ( #.+.@._ g 4 ",
"O.O.o.@.R k j g h g g g g g g g g g g g g g g g g g g g g g g g g g g g g g g g h f f k c l z j 0.UXyX~ d k z x k f k g g g g g g g g g g g g g g g g g g g g g g g g g g g g g g g g f f h g f ) @.O.@.) d 8 ",
"O.+.o.+.T k j g g g g g g g g g g g g g g g g g g g g g g g g g g g g g g g g g g g g g f f g p E M.w.n i s h h g g g g g g g g g g g g g g g g g g g g g g g g g g g g g g g g g g g g f g f g ) +.O.@.( s 9 ",
"O.+.o.@.T k j g g g g g g g g g g g g g g g g g g g g g g g g g g g g g g g g g g g g g g g h f k C n d j f d f g g g g g g g g g g g g g g g g g g g g g g g g g g g g g g g g g g g g f g f g ) +.O.@.( s 9 ",
"O.+.o.@.T k j g g g g g g g g g g g g g g g g g g g g g g g g g g g g g g g g g g g g g g g j k A ] ( z x l g f g g g g g g g g g g g g g g g g g g g g g g g g g g g g g g g g g g g g f g f g ) +.O.@.( s 9 ",
"O.+.o.@.T k j g g g g g g g g g g g g g g g g g g g g g g g g g g g g g g g g g g g g g g g d d +.@X!.C f k z j g g g g g g g g g g g g g g g g g g g g g g g g g g g g g g g g g g g g f g f g ) +.O.@.( s 9 ",
"O.+.o.@.T k j g g g g g g g g g g g g g g g g g g g g g g g g g g g g g g g g g g g g g g g s u 6.UXdXK p p d g g g g g g g g g g g g g g g g g g g g g g g g g g g g g g g g g g g g g f g f g ) +.O.@.( s 9 ",
"O.+.o.@.T k j g g g g g g g g g g g g g g g g g g g g g g g g g g g g g g g g g g g g g g g v j X.>X].P b j g g g g g g g g g g g g g g g g g g g g g g g g g g g g g g g g g g g g g g f g f g ) +.O.@.( s 9 ",
"O.+.o.@.T k j g g g g g g g g g g g g g g g g g g g g g g g g g g g g g g g g g g g g g g g k i g T H a s k k h g g g g g g g g g g g g g g g g g g g g g g g g g g g g g g g g g g g g f g f g ) +.O.@.( s 9 ",
"O.+.o.@.T k j g g g g g g g g g g g g g g g g g g g g g g g g g g g g g g g g g g g g g g g s h z j j k u l h d g g g g g g g g g g g g g g g g g g g g g g g g g g g g g g g g g g g g f g f g ) +.O.@.( s 9 ",
"O.+.o.@.T k j g g g g g g g g g g g g g g g g g g g g g g g g g g g g g g g g g g g g g g g k f  .|.V.K v y d j g g g g g g g g g g g g g g g g g g g g g g g g g g g g g g g g g g g g f g f g ) +.O.@.( s 9 ",
"O.+.o.@.T k j g g g g g g g g g g g g g g g g g g g g g g g g g g g g g g g g g g g g g g g j i 4.UXpXK g a f g g g g g g g g g g g g g g g g g g g g g g g g g g g g g g g g g g g g g f g f g ) +.O.@.( s 9 ",
"O.+.o.@.T k j g g g g g g g g g g g g g g g g g g g g g g g g g g g g g g g g g g g g g g g g a >.bX5XA y b l d g g g g g g g g g g g g g g g g g g g g g g g g g g g g g g g g g g g g f g f g ) +.O.@.( s 9 ",
"O.+.o.@.T k j g g g g g g g g g g g g g g g g g g g g g g g g g g g g g g g g g g g g g g g h j ! j.e.N j n l f g g g g g g g g g g g g g g g g g g g g g g g g g g g g g g g g g g g g f g f g ) +.O.@.( s 9 ",
"O.+.o.@.T k j g g g g g g g g g g g g g g g g g g g g g g g g g g g g g g g g g g g g g g g g d a p u k v s d h g g g g g g g g g g g g g g g g g g g g g g g g g g g g g g g g g g g g f g f g ) +.O.@.( s 9 ",
"O.+.o.@.T k j g g g g g g g g g g g g g g g g g g g g g g g g g g g g g g g g g g g g g g g f i c ^ U l g i g j g g g g g g g g g g g g g g g g g g g g g g g g g g g g g g g g g g g g f g f g ) +.O.@.( s 9 ",
"O.+.o.@.T k j g g g g g g g g g g g g g g g g g g g g g g g g g g g g g g g g g g g g g g g h s >.vX0XP i l l g g g g g g g g g g g g g g g g g g g g g g g g g g g g g g g g g g g g g f g f g ) +.O.@.( s 9 ",
"O.+.o.@.T k j g g g g g g g g g g g g g g g g g g g g g g g g g g g g g g g g g g g g g g g h s 7.UXlXI i l f s g g g g g g g g g g g g g g g g g g g g g g g g g g g g g g g g g g g g f g f g ) +.O.@.( s 9 ",
"O.+.o.@.R k j g g g g g g g g g g g g g g g g g g g g g g g g g g g g g g g g g g g g g g g j s R c.6.c k f g g g g g g g g g g g g g g g g g g g g g g g g g g g g g g g g g g g g g g f g f g _ +.O.@.( s 9 ",
"#.@.X...I k k g p l j h h h h h h h h h h h h h h h h h h h h h h h h h h g f f f f f f f f h f l Z b f k f g h h h h h h h h h h h h h h h h h h h h h h h h h h h g f f f f f f f f g h s d k ! +.$.%._ g 6 ",
"O.#.O.O.E x j l f h g g g g g g g g g g g g g g g g g g g g g g g g g g g g g g g g g g g g g f f s d f f g f g g g g g g g g g g g g g g g g g g g g g g g g g g g g g g g g g g g g g f d g c ~ O.@.+./ g 5 ",
"..@...$.` v s z c a d g g g g g g g g f f f f f f f f f f f f f f f f f f g g g g g g g g g g g g g g g g g g g f f f f f f f f f f f f f f f f f f f f f f f f f f g g g g g g g g g d s h h m ' O.....Q p 5 ",
"#.#.] +.} B i d c g g h h h h h h h h g g g g g g g g g g g g g g g g g g g g g g g g g g f g h h h h h h h h g g g g g g g g g g g g g g g g g g g g g g g g g g g f d d d d d d d d f h j d C ..O.X.@.~ t 5 ",
"$.&.{ @.@.W b a j l h g g g g g g g g g g g g g g g g g g g g g g g g g g j k k k k k k k k h g g g g g g g g g g g g g g g g g g g g g g g g g g g g g g g g g g g g g g g g g g g g g g j v E @...O.*.W 0 6 ",
"W O.o.$.$.| E x d h g f f f f f f f f g g g g g g g g g g g g g g g g g g g f f f f f f f f g g g g g g g g g g g g g g g g g g g g g g g g g g g g g g g g g g g g h h h h h h h h h g f M R o.@.} @.X.V 8 7 ",
"f ( #.$. .{  .T Z N c z z z z z z z z z z z z z z z z z z z z z z z z z z v b b b b b b b b c x x x x x x x x z z z z z z z z z z z z z z z z z z z z z z z z z z z z z z z z z z z z n G E | O.X.O.&.! y 7 9 ",
"6 D | %...} &.+.} ) _ ` ` ` ` ` ` ` ` _ ) ) ) ) ) ) ) ) ) ) ) ) ) ) ) ) ) ) ) ) ) ) ) ) ) ) ) ) ) ) ) ) ) ) ) ) ) ) ) ) ) ) ) ) ) ) ) ) ) ) ) ) ) ) ) ) ) ) ) ) ) ) _ ] ' ' ' ' ' ' ' [  . .o.} X.O.] B 5 6 0 ",
"8 i K o.@.o.$.O.@.| X.o.o.o.o.o.o.o.o.O.O.O.O.O.O.O.O.O.O.O.O.O.O.O.O.O.O.o.X.X.X.X.X.X.X.X.X.o.o.o.o.o.o.o.o.o.O.O.O.O.O.O.O.O.O.O.O.O.O.O.O.O.O.O.O.O.O.O.O.O.O.O.O.O.O.O.O.O.O.O.O.+.+.o.@.X.%.] Z u 5 6 w ",
"9 4 d L ] O.@..... .X.o.o.o.o.o.o.o.o.O.O.O.O.O.O.O.O.O.O.O.O.O.O.O.O.O.O.O.o.o.o.o.o.o.o.o.o.o.o.o.o.o.o.o.o.O.O.O.O.O.O.O.O.O.O.O.O.O.O.O.O.O.O.O.O.O.O.O.O.O.O.O.O.o.o.o.o.o.o.o.o.X...X.#.O.` C t 6 8 7 0 ",
"7 2 6 a C ! | o.O.+.O.O.O.O.O.O.O.O.O.O.O.O.O.O.O.O.O.O.O.O.O.O.O.O.O.O.O.O.O.O.O.O.O.O.O.O.O.O.O.O.O.O.O.O.O.O.O.O.O.O.O.O.O.O.O.O.O.O.O.O.O.O.O.O.O.O.O.O.O.O.O.O.O.O.O.O.O.O.O.O.O.O.+...] Q B y 4 4 8 7 7 ",
"7 5 5 7 e h A Q ] { { [ [ [ [ [ [ [ [ [ [ [ [ [ [ [ [ [ [ [ [ [ [ [ [ [ [ [ [ [ [ [ [ [ [ [ [ [ [ [ [ [ [ [ [ [ [ [ [ [ [ [ [ [ [ [ [ [ [ [ [ [ [ [ [ [ [ [ [ [ [ [ [ [ [ [ [ [ [ [ [ { ' T C j y 0 6 7 8 7 7 ",
"7 7 9 8 3 1 6 i z m S F F F F F F F F F F F F F F F F F F F F F F F F F F F F F F F F F F F F F F F F F F F F F F F F F F F F F F F F F F F F F F F F F F F F F F F F D D D D D D D F V j p 0 4 3 6 8 8 7 7 7 ",
"7 5 5 6 8 0 w e 9 2 7 9 8 8 8 8 8 8 8 8 8 8 8 8 8 8 8 8 8 8 8 8 8 8 8 8 8 8 8 8 8 8 8 8 8 8 8 8 8 8 8 8 8 8 8 8 8 8 8 8 8 8 8 8 8 8 8 8 8 8 8 8 8 8 8 8 8 8 8 8 8 8 8 8 8 8 8 8 8 8 8 8 8 7 7 7 7 7 7 6 6 7 7 "
};
